<?xml version="1.0" encoding="UTF-8" standalone="no"?>
<!-- Created with Inkscape (http://www.inkscape.org/) -->

<svg
   xmlns:dc="http://purl.org/dc/elements/1.1/"
   xmlns:cc="http://creativecommons.org/ns#"
   xmlns:rdf="http://www.w3.org/1999/02/22-rdf-syntax-ns#"
   xmlns:svg="http://www.w3.org/2000/svg"
   xmlns="http://www.w3.org/2000/svg"
   xmlns:sodipodi="http://sodipodi.sourceforge.net/DTD/sodipodi-0.dtd"
   xmlns:inkscape="http://www.inkscape.org/namespaces/inkscape"
   width="37.755081mm"
   height="6.6483297mm"
   viewBox="0 0 37.755081 6.6483298"
   version="1.1"
   id="svg8"
   inkscape:version="0.92.2 5c3e80d, 2017-08-06"
   sodipodi:docname="b-icon.svg">
  <defs
     id="defs2" />
  <sodipodi:namedview
     id="base"
     pagecolor="#ffffff"
     bordercolor="#666666"
     borderopacity="1.0"
     inkscape:pageopacity="0.0"
     inkscape:pageshadow="2"
     inkscape:zoom="5.6"
     inkscape:cx="66.385197"
     inkscape:cy="6.9127036"
     inkscape:document-units="mm"
     inkscape:current-layer="layer1"
     showgrid="false"
     inkscape:snap-global="false"
     fit-margin-top="0"
     fit-margin-left="0"
     fit-margin-right="0"
     fit-margin-bottom="0"
     inkscape:window-width="1470"
     inkscape:window-height="1335"
     inkscape:window-x="0"
     inkscape:window-y="1"
     inkscape:window-maximized="0" />
  <metadata
     id="metadata5">
    <rdf:RDF>
      <cc:Work
         rdf:about="">
        <dc:format>image/svg+xml</dc:format>
        <dc:type
           rdf:resource="http://purl.org/dc/dcmitype/StillImage" />
        <dc:title></dc:title>
      </cc:Work>
    </rdf:RDF>
  </metadata>
  <g
     inkscape:label="Layer 1"
     inkscape:groupmode="layer"
     id="layer1"
     transform="translate(-104.53018,-97.411514)">
    <rect
       ry="0.56794775"
       y="97.411514"
       x="104.53018"
       height="6.6483297"
       width="37.755081"
       id="rect7715"
       style="opacity:1;fill:#6083ab;fill-opacity:1;stroke:none;stroke-width:0.76474386;stroke-miterlimit:4;stroke-dasharray:none;stroke-opacity:1" />
    <g
       aria-label="Мне нравится"
       transform="scale(0.94435728,1.0589213)"
       style="font-style:normal;font-weight:normal;font-size:3.33148241px;line-height:1.25;font-family:sans-serif;letter-spacing:0px;word-spacing:0px;fill:#ffffff;fill-opacity:1;stroke:none;stroke-width:0.24986118"
       id="text7752">
      <path
         d="m 123.93146,96.083389 h -0.6214 v -1.62182 l -0.44897,1.052475 h -0.43108 l -0.44896,-1.052475 v 1.62182 h -0.58887 v -2.422157 h 0.72551 l 0.54494,1.215146 0.54332,-1.215146 h 0.72551 z"
         style="font-style:normal;font-variant:normal;font-weight:bold;font-stretch:normal;font-family:sans-serif;-inkscape-font-specification:'sans-serif Bold';fill:#ffffff;stroke-width:0.24986118"
         id="path7827"
         inkscape:connector-curvature="0" />
      <path
         d="m 126.36012,96.083389 h -0.58561 V 95.3042 h -0.67345 v 0.779189 h -0.58562 v -1.826784 h 0.58562 v 0.629533 h 0.67345 v -0.629533 h 0.58561 z"
         style="font-style:normal;font-variant:normal;font-weight:bold;font-stretch:normal;font-family:sans-serif;-inkscape-font-specification:'sans-serif Bold';fill:#ffffff;stroke-width:0.24986118"
         id="path7829"
         inkscape:connector-curvature="0" />
      <path
         d="m 128.71559,95.278173 h -1.34041 q 0.013,0.214724 0.16267,0.328593 0.15129,0.113869 0.44409,0.113869 0.18545,0 0.3595,-0.06669 0.17406,-0.06669 0.27492,-0.143149 h 0.0651 v 0.470116 q -0.19845,0.07971 -0.37414,0.115496 -0.17568,0.03579 -0.38878,0.03579 -0.54982,0 -0.84263,-0.247258 -0.2928,-0.247259 -0.2928,-0.704361 0,-0.452223 0.27653,-0.715749 0.27817,-0.265152 0.7613,-0.265152 0.44572,0 0.6702,0.226112 0.22449,0.224484 0.22449,0.647426 z m -0.58236,-0.343234 q -0.005,-0.183817 -0.0911,-0.276539 -0.0862,-0.09272 -0.2684,-0.09272 -0.16918,0 -0.27817,0.08784 -0.10899,0.08784 -0.122,0.281419 z"
         style="font-style:normal;font-variant:normal;font-weight:bold;font-stretch:normal;font-family:sans-serif;-inkscape-font-specification:'sans-serif Bold';fill:#ffffff;stroke-width:0.24986118"
         id="path7831"
         inkscape:connector-curvature="0" />
      <path
         d="m 132.11214,96.083389 h -0.58562 V 95.3042 h -0.67345 v 0.779189 h -0.58561 v -1.826784 h 0.58561 v 0.629533 h 0.67345 v -0.629533 h 0.58562 z"
         style="font-style:normal;font-variant:normal;font-weight:bold;font-stretch:normal;font-family:sans-serif;-inkscape-font-specification:'sans-serif Bold';fill:#ffffff;stroke-width:0.24986118"
         id="path7833"
         inkscape:connector-curvature="0" />
      <path
         d="m 134.57496,95.144783 q 0,0.226112 -0.07,0.411555 -0.0683,0.185444 -0.18056,0.30582 -0.11712,0.126883 -0.26515,0.191951 -0.14803,0.06507 -0.31721,0.06507 -0.15616,0 -0.26515,-0.03416 -0.10899,-0.03253 -0.22286,-0.09272 v 0.761296 h -0.58561 V 94.25661 h 0.58561 v 0.190324 q 0.13502,-0.107363 0.27491,-0.174057 0.14152,-0.0667 0.32534,-0.0667 0.34161,0 0.53031,0.250512 0.19032,0.250512 0.19032,0.688094 z m -0.60351,0.01139 q 0,-0.266779 -0.0911,-0.387155 -0.0911,-0.120375 -0.28793,-0.120375 -0.083,0 -0.1708,0.02603 -0.0878,0.0244 -0.16755,0.07157 v 0.919085 q 0.0586,0.02277 0.12525,0.02928 0.0667,0.0065 0.13177,0.0065 0.23262,0 0.34648,-0.135016 0.11387,-0.136643 0.11387,-0.409929 z"
         style="font-style:normal;font-variant:normal;font-weight:bold;font-stretch:normal;font-family:sans-serif;-inkscape-font-specification:'sans-serif Bold';fill:#ffffff;stroke-width:0.24986118"
         id="path7835"
         inkscape:connector-curvature="0" />
      <path
         d="m 136.10406,95.606766 v -0.380648 q -0.11875,0.0098 -0.25702,0.02765 -0.13827,0.01627 -0.20984,0.03904 -0.0879,0.02765 -0.13502,0.08134 -0.0456,0.05205 -0.0456,0.138269 0,0.05693 0.01,0.09272 0.01,0.03579 0.0488,0.06832 0.0374,0.03253 0.0895,0.0488 0.0521,0.01464 0.16267,0.01464 0.0878,0 0.17731,-0.03579 0.0911,-0.03579 0.15942,-0.09435 z m 0,0.283046 q -0.0472,0.03579 -0.11712,0.08621 -0.07,0.05043 -0.13177,0.07971 -0.0862,0.03904 -0.17893,0.05693 -0.0927,0.01952 -0.20334,0.01952 -0.26027,0 -0.43596,-0.161043 -0.17568,-0.161043 -0.17568,-0.411555 0,-0.200084 0.0895,-0.326967 0.0895,-0.126883 0.25376,-0.200084 0.16267,-0.0732 0.40342,-0.104109 0.24076,-0.03091 0.4994,-0.04555 v -0.0098 q 0,-0.151283 -0.12363,-0.208217 -0.12363,-0.05856 -0.36438,-0.05856 -0.14477,0 -0.30907,0.05205 -0.1643,0.05043 -0.23587,0.07808 h -0.0537 v -0.440835 q 0.0927,-0.0244 0.30094,-0.05694 0.20984,-0.03416 0.41968,-0.03416 0.4994,0 0.72063,0.154537 0.22286,0.15291 0.22286,0.481503 v 1.242799 h -0.58073 z"
         style="font-style:normal;font-variant:normal;font-weight:bold;font-stretch:normal;font-family:sans-serif;-inkscape-font-specification:'sans-serif Bold';fill:#ffffff;stroke-width:0.24986118"
         id="path7837"
         inkscape:connector-curvature="0" />
      <path
         d="m 139.05489,95.531938 q 0,0.131763 -0.0537,0.234245 -0.052,0.102482 -0.13989,0.170803 -0.11062,0.08621 -0.23425,0.117123 -0.122,0.02928 -0.29118,0.02928 h -1.11266 v -1.826784 h 1.06549 q 0.20008,0 0.29443,0.01301 0.0944,0.01301 0.18544,0.06344 0.096,0.05205 0.14315,0.138269 0.0488,0.08621 0.0488,0.204964 0,0.135017 -0.0781,0.237499 -0.0765,0.100855 -0.18544,0.154536 v 0.01789 q 0.15128,0.03741 0.25376,0.151283 0.10411,0.112242 0.10411,0.294433 z m -0.68484,-0.725509 q 0,-0.100855 -0.0618,-0.143149 -0.0602,-0.04229 -0.19521,-0.04229 h -0.30907 v 0.364381 h 0.31883 q 0.11875,0 0.18219,-0.04717 0.0651,-0.0488 0.0651,-0.131763 z m 0.0813,0.707615 q 0,-0.118749 -0.0683,-0.165923 -0.0667,-0.0488 -0.19846,-0.0488 h -0.38065 v 0.418062 h 0.39041 q 0.12037,0 0.1887,-0.05368 0.0683,-0.05531 0.0683,-0.149657 z"
         style="font-style:normal;font-variant:normal;font-weight:bold;font-stretch:normal;font-family:sans-serif;-inkscape-font-specification:'sans-serif Bold';fill:#ffffff;stroke-width:0.24986118"
         id="path7839"
         inkscape:connector-curvature="0" />
      <path
         d="m 141.32739,96.083389 h -0.56771 v -1.117543 l -0.79383,1.117543 h -0.48476 v -1.826784 h 0.56772 v 1.00042 l 0.73527,-1.00042 h 0.54331 z"
         style="font-style:normal;font-variant:normal;font-weight:bold;font-stretch:normal;font-family:sans-serif;-inkscape-font-specification:'sans-serif Bold';fill:#ffffff;stroke-width:0.24986118"
         id="path7841"
         inkscape:connector-curvature="0" />
      <path
         d="m 143.37216,94.65352 h -0.58236 v 1.429869 h -0.58562 V 94.65352 h -0.58235 v -0.396915 h 1.75033 z"
         style="font-style:normal;font-variant:normal;font-weight:bold;font-stretch:normal;font-family:sans-serif;-inkscape-font-specification:'sans-serif Bold';fill:#ffffff;stroke-width:0.24986118"
         id="path7843"
         inkscape:connector-curvature="0" />
      <path
         d="m 144.61658,96.13219 q -0.23912,0 -0.43758,-0.05693 -0.19683,-0.05693 -0.34324,-0.175684 -0.14477,-0.118749 -0.22448,-0.299313 -0.0797,-0.180563 -0.0797,-0.422942 0,-0.255392 0.0846,-0.440836 0.0862,-0.185443 0.23913,-0.307446 0.14802,-0.115496 0.3416,-0.169177 0.19358,-0.05368 0.4018,-0.05368 0.18707,0 0.34486,0.04067 0.15779,0.04067 0.29443,0.105735 v 0.499397 h -0.083 q -0.0342,-0.02928 -0.083,-0.06832 -0.0472,-0.03904 -0.11713,-0.07645 -0.0667,-0.03579 -0.1464,-0.05856 -0.0797,-0.0244 -0.18544,-0.0244 -0.23425,0 -0.36113,0.149656 -0.12526,0.14803 -0.12526,0.403422 0,0.263526 0.12851,0.400168 0.13014,0.136643 0.36764,0.136643 0.11061,0 0.19846,-0.0244 0.0895,-0.02603 0.14802,-0.06019 0.0553,-0.03253 0.0976,-0.06832 0.0423,-0.03579 0.0781,-0.06995 h 0.083 v 0.499397 q -0.13827,0.06507 -0.28955,0.102482 -0.14966,0.03904 -0.33185,0.03904 z"
         style="font-style:normal;font-variant:normal;font-weight:bold;font-stretch:normal;font-family:sans-serif;-inkscape-font-specification:'sans-serif Bold';fill:#ffffff;stroke-width:0.24986118"
         id="path7845"
         inkscape:connector-curvature="0" />
      <path
         d="m 147.37384,96.083389 h -0.58399 v -0.634413 h -0.2619 l -0.43758,0.634413 h -0.65556 l 0.5238,-0.715748 q -0.18382,-0.08296 -0.27979,-0.208218 -0.0943,-0.126882 -0.0943,-0.34974 0,-0.151283 0.0586,-0.253765 0.0602,-0.102483 0.16104,-0.175684 0.0895,-0.06181 0.20985,-0.09272 0.122,-0.03091 0.27166,-0.03091 h 1.08826 z m -0.58399,-0.992287 v -0.455476 h -0.34648 q -0.12038,0 -0.1887,0.05531 -0.0667,0.05368 -0.0667,0.15779 0,0.128509 0.0667,0.185444 0.0667,0.05693 0.19846,0.05693 z"
         style="font-style:normal;font-variant:normal;font-weight:bold;font-stretch:normal;font-family:sans-serif;-inkscape-font-specification:'sans-serif Bold';fill:#ffffff;stroke-width:0.24986118"
         id="path7847"
         inkscape:connector-curvature="0" />
    </g>
    <path
       style="opacity:1;fill:#ffffff;fill-opacity:1;stroke:none;stroke-width:0.34671935;stroke-miterlimit:4;stroke-dasharray:none;stroke-opacity:1"
       d="m 107.06845,99.20149 v 1.50147 1.5011 l 0.77976,-0.003 c 0.75585,-0.003 0.78295,-0.003 0.88117,-0.0187 0.20355,-0.0318 0.31571,-0.0731 0.44219,-0.1634 0.1406,-0.10043 0.26396,-0.27423 0.3175,-0.44757 0.0529,-0.17125 0.0494,-0.42 -0.008,-0.573 -0.0669,-0.17764 -0.1805,-0.30017 -0.35118,-0.37913 l -0.0613,-0.0283 0.0329,-0.0168 c 0.0721,-0.037 0.15768,-0.10637 0.20425,-0.16555 0.0413,-0.0525 0.0796,-0.13283 0.10249,-0.21501 0.0183,-0.0658 0.0196,-0.0819 0.0197,-0.210713 9e-5,-0.12836 -0.001,-0.14527 -0.0197,-0.21429 -0.0878,-0.331632 -0.34109,-0.51677 -0.76471,-0.559014 -0.052,-0.0052 -0.34232,-0.0082 -0.82741,-0.0082 z m 0.60202,0.521037 0.30997,3.6e-4 c 0.5582,3.5e-4 0.69827,0.0204 0.78119,0.11216 0.0445,0.0493 0.0619,0.0983 0.0663,0.184553 0.005,0.10102 -0.006,0.16054 -0.042,0.21573 -0.0317,0.049 -0.0515,0.0647 -0.12614,0.1 -0.0934,0.0441 -0.13876,0.048 -0.59127,0.048 h -0.39812 v -0.33039 z m 0,1.159603 0.38701,3.7e-4 c 0.21292,7e-5 0.41798,0.003 0.45582,0.007 0.26382,0.0278 0.37874,0.14169 0.37733,0.37411 -0.001,0.22258 -0.0993,0.35364 -0.29778,0.39812 -0.0628,0.0141 -0.0967,0.0153 -0.49487,0.0182 l -0.42751,0.003 v -0.40063 z"
       id="rect7821"
       inkscape:connector-curvature="0"
       sodipodi:nodetypes="ccccccccccccccccscccccccccccccccccccc" />
    <rect
       style="opacity:1;fill:#ffffff;fill-opacity:1;stroke:none;stroke-width:0.5;stroke-miterlimit:4;stroke-dasharray:none;stroke-opacity:1"
       id="rect7825"
       width="0.1889881"
       height="4.6774554"
       x="112.04246"
       y="98.248459" />
  </g>
</svg>
