<?xml version="1.0" encoding="UTF-8" standalone="no"?>
<!-- Created with Inkscape (http://www.inkscape.org/) -->

<svg
   xmlns:dc="http://purl.org/dc/elements/1.1/"
   xmlns:cc="http://creativecommons.org/ns#"
   xmlns:rdf="http://www.w3.org/1999/02/22-rdf-syntax-ns#"
   xmlns:svg="http://www.w3.org/2000/svg"
   xmlns="http://www.w3.org/2000/svg"
   xmlns:sodipodi="http://sodipodi.sourceforge.net/DTD/sodipodi-0.dtd"
   xmlns:inkscape="http://www.inkscape.org/namespaces/inkscape"
   width="26.79377mm"
   height="6.6483297mm"
   viewBox="0 0 26.79377 6.6483298"
   version="1.1"
   id="svg8"
   inkscape:version="0.92.2 5c3e80d, 2017-08-06"
   sodipodi:docname="ф.svg">
  <defs
     id="defs2" />
  <sodipodi:namedview
     id="base"
     pagecolor="#ffffff"
     bordercolor="#666666"
     borderopacity="1.0"
     inkscape:pageopacity="0.0"
     inkscape:pageshadow="2"
     inkscape:zoom="7.919596"
     inkscape:cx="48.226048"
     inkscape:cy="-27.373037"
     inkscape:document-units="mm"
     inkscape:current-layer="layer1"
     showgrid="false"
     inkscape:snap-global="false"
     fit-margin-top="0"
     fit-margin-left="0"
     fit-margin-right="0"
     fit-margin-bottom="0"
     inkscape:window-width="1470"
     inkscape:window-height="1335"
     inkscape:window-x="0"
     inkscape:window-y="1"
     inkscape:window-maximized="0" />
  <metadata
     id="metadata5">
    <rdf:RDF>
      <cc:Work
         rdf:about="">
        <dc:format>image/svg+xml</dc:format>
        <dc:type
           rdf:resource="http://purl.org/dc/dcmitype/StillImage" />
        <dc:title></dc:title>
      </cc:Work>
    </rdf:RDF>
  </metadata>
  <g
     inkscape:label="Layer 1"
     inkscape:groupmode="layer"
     id="layer1"
     transform="translate(-109.16039,-78.087479)">
    <g
       id="g7629">
      <rect
         ry="0.56794775"
         y="78.087479"
         x="109.16039"
         height="6.6483297"
         width="26.79377"
         id="rect7518"
         style="opacity:1;fill:#4864b5;fill-opacity:1;stroke:none;stroke-width:0.64423633;stroke-miterlimit:4;stroke-dasharray:none;stroke-opacity:1" />
      <path
         inkscape:connector-curvature="0"
         id="path7585"
         d="m 110.83998,83.584907 c -0.1691,-0.03522 -0.29789,-0.105772 -0.40998,-0.22459 -0.0839,-0.08893 -0.13508,-0.171883 -0.17397,-0.28194 l -0.0299,-0.08456 -0.003,-1.585124 c -0.003,-1.753683 -0.007,-1.651879 0.0654,-1.793534 0.0702,-0.137698 0.16811,-0.23129 0.31842,-0.304378 0.17286,-0.08405 0.0649,-0.07936 1.82254,-0.07916 1.74426,2.05e-4 1.64072,-0.0041 1.8008,0.07481 0.16483,0.08125 0.28147,0.229164 0.32984,0.418288 0.0203,0.07941 0.0209,0.123645 0.0209,1.645311 0,1.318804 -0.002,1.576214 -0.0153,1.643552 -0.0525,0.274407 -0.24806,0.493091 -0.49813,0.55705 -0.0708,0.0181 -0.1174,0.02114 -0.32437,0.02114 h -0.24172 v -0.878417 c 0,-0.829223 0.001,-0.878461 0.0185,-0.879226 0.0102,-4.45e-4 0.0257,-0.0022 0.0344,-0.0039 0.009,-0.0017 0.10875,-0.0065 0.22225,-0.01071 0.11351,-0.0042 0.2079,-0.0091 0.20976,-0.01097 0.005,-0.0053 0.0523,-0.38477 0.0605,-0.4894 l 0.007,-0.09527 -0.0251,3.36e-4 c -0.0138,1.86e-4 -0.13845,-4.43e-4 -0.27702,-0.0014 l -0.25196,-0.0017 0.003,-0.216216 c 0.004,-0.236924 0.005,-0.243472 0.0761,-0.296422 0.0269,-0.02014 0.0463,-0.02207 0.2507,-0.02506 l 0.22151,-0.0032 v -0.306322 -0.306323 l -0.27252,1.83e-4 c -0.40075,2.7e-4 -0.52674,0.01756 -0.67903,0.09317 -0.1383,0.06867 -0.23508,0.184984 -0.28777,0.345855 -0.0227,0.06935 -0.0245,0.0949 -0.0283,0.399521 l -0.004,0.325438 h -0.17382 -0.17382 v 0.296333 0.296334 h 0.12552 c 0.069,0 0.14762,0.003 0.17463,0.0067 l 0.0491,0.0067 v 0.876978 0.876978 l -0.96044,-0.0012 c -0.52824,-6.75e-4 -0.96996,-0.0032 -0.9816,-0.0056 z"
         style="fill:#ffffff;stroke-width:0.01058333" />
      <g
         id="text7589"
         style="font-style:normal;font-weight:normal;font-size:3.42429113px;line-height:1.25;font-family:sans-serif;letter-spacing:0px;word-spacing:0px;fill:#ffffff;fill-opacity:1;stroke:none;stroke-width:0.25682184"
         transform="scale(0.97066523,1.0302213)"
         aria-label="Нравится">
        <path
           id="path7601"
           style="font-style:normal;font-variant:normal;font-weight:bold;font-stretch:normal;font-family:sans-serif;-inkscape-font-specification:'sans-serif Bold';fill:#ffffff;stroke-width:0.25682184"
           d="m 122.01561,80.10981 h -0.64206 v -1.096843 h -0.94803 v 1.096843 h -0.64205 v -2.489634 h 0.64205 v 0.91125 h 0.94803 v -0.91125 h 0.64206 z"
           inkscape:connector-curvature="0" />
        <path
           id="path7603"
           style="font-style:normal;font-variant:normal;font-weight:bold;font-stretch:normal;font-family:sans-serif;-inkscape-font-specification:'sans-serif Bold';fill:#ffffff;stroke-width:0.25682184"
           d="m 124.57881,79.145056 q 0,0.23241 -0.0719,0.42302 -0.0702,0.19061 -0.18559,0.31434 -0.12039,0.130417 -0.27254,0.197298 -0.15215,0.06688 -0.32604,0.06688 -0.16052,0 -0.27254,-0.03511 -0.11203,-0.03344 -0.22907,-0.0953 v 0.782504 h -0.60192 v -2.566546 h 0.60192 v 0.195626 q 0.13878,-0.110354 0.28257,-0.178906 0.14547,-0.06855 0.33441,-0.06855 0.35112,0 0.54507,0.257491 0.19563,0.25749 0.19563,0.707263 z m -0.62032,0.0117 q 0,-0.274211 -0.0936,-0.39794 -0.0936,-0.123729 -0.29595,-0.123729 -0.0853,0 -0.17556,0.02675 -0.0903,0.02508 -0.17222,0.07357 v 0.944689 q 0.0602,0.02341 0.12875,0.0301 0.0686,0.0067 0.13543,0.0067 0.2391,0 0.35614,-0.138778 0.11704,-0.140449 0.11704,-0.421348 z"
           inkscape:connector-curvature="0" />
        <path
           id="path7605"
           style="font-style:normal;font-variant:normal;font-weight:bold;font-stretch:normal;font-family:sans-serif;-inkscape-font-specification:'sans-serif Bold';fill:#ffffff;stroke-width:0.25682184"
           d="m 126.15051,79.619909 v -0.391252 q -0.12206,0.01003 -0.26418,0.02842 -0.14212,0.01672 -0.21569,0.04013 -0.0903,0.02842 -0.13878,0.0836 -0.0468,0.05351 -0.0468,0.142122 0,0.05852 0.01,0.0953 0.01,0.03678 0.0502,0.07023 0.0384,0.03344 0.092,0.05016 0.0535,0.01505 0.1672,0.01505 0.0903,0 0.18225,-0.03678 0.0936,-0.03679 0.16386,-0.09698 z m 0,0.290931 q -0.0485,0.03678 -0.12039,0.08862 -0.0719,0.05183 -0.13543,0.08193 -0.0886,0.04013 -0.18392,0.05852 -0.0953,0.02006 -0.20901,0.02006 -0.26752,0 -0.4481,-0.165529 -0.18057,-0.16553 -0.18057,-0.423021 0,-0.205658 0.092,-0.336075 0.092,-0.130417 0.26083,-0.205658 0.1672,-0.07524 0.41466,-0.107009 0.24746,-0.03177 0.51331,-0.04682 v -0.01003 q 0,-0.155497 -0.12707,-0.214018 -0.12708,-0.06019 -0.37453,-0.06019 -0.14881,0 -0.31769,0.05351 -0.16887,0.05183 -0.24244,0.08026 h -0.0552 v -0.453117 q 0.0953,-0.02508 0.30933,-0.05852 0.21569,-0.03511 0.43138,-0.03511 0.51331,0 0.7407,0.158842 0.22907,0.157169 0.22907,0.494917 v 1.277421 h -0.59691 z"
           inkscape:connector-curvature="0" />
        <path
           id="path7607"
           style="font-style:normal;font-variant:normal;font-weight:bold;font-stretch:normal;font-family:sans-serif;-inkscape-font-specification:'sans-serif Bold';fill:#ffffff;stroke-width:0.25682184"
           d="m 129.18355,79.542996 q 0,0.135433 -0.0552,0.240771 -0.0535,0.105337 -0.14379,0.175561 -0.1137,0.08862 -0.24077,0.120386 -0.12541,0.0301 -0.2993,0.0301 h -1.14366 v -1.877675 h 1.09518 q 0.20565,0 0.30263,0.01338 0.097,0.01338 0.19061,0.06521 0.0986,0.0535 0.14714,0.142122 0.0502,0.08862 0.0502,0.210674 0,0.138777 -0.0803,0.244115 -0.0786,0.103665 -0.19061,0.158841 v 0.01839 q 0.1555,0.03846 0.26084,0.155498 0.10701,0.115369 0.10701,0.302635 z m -0.70392,-0.74572 q 0,-0.103665 -0.0635,-0.147137 -0.0619,-0.04347 -0.20064,-0.04347 h -0.31769 v 0.374532 h 0.32772 q 0.12206,0 0.18727,-0.04849 0.0669,-0.05016 0.0669,-0.135434 z m 0.0836,0.727328 q 0,-0.122057 -0.0702,-0.170546 -0.0685,-0.05016 -0.20398,-0.05016 h -0.39126 v 0.429708 h 0.40129 q 0.12373,0 0.19395,-0.05518 0.0702,-0.05685 0.0702,-0.153825 z"
           inkscape:connector-curvature="0" />
        <path
           id="path7609"
           style="font-style:normal;font-variant:normal;font-weight:bold;font-stretch:normal;font-family:sans-serif;-inkscape-font-specification:'sans-serif Bold';fill:#ffffff;stroke-width:0.25682184"
           d="m 131.51935,80.10981 h -0.58353 v -1.148676 l -0.81594,1.148676 h -0.49827 v -1.877675 h 0.58354 v 1.02829 l 0.75575,-1.02829 h 0.55845 z"
           inkscape:connector-curvature="0" />
        <path
           id="path7611"
           style="font-style:normal;font-variant:normal;font-weight:bold;font-stretch:normal;font-family:sans-serif;-inkscape-font-specification:'sans-serif Bold';fill:#ffffff;stroke-width:0.25682184"
           d="m 133.62108,78.640107 h -0.59858 v 1.469703 h -0.60193 v -1.469703 h -0.59858 v -0.407972 h 1.79909 z"
           inkscape:connector-curvature="0" />
        <path
           id="path7613"
           style="font-style:normal;font-variant:normal;font-weight:bold;font-stretch:normal;font-family:sans-serif;-inkscape-font-specification:'sans-serif Bold';fill:#ffffff;stroke-width:0.25682184"
           d="m 134.90017,80.15997 q -0.24578,0 -0.44977,-0.05852 -0.20231,-0.05852 -0.3528,-0.180578 -0.14881,-0.122057 -0.23073,-0.307651 -0.0819,-0.185594 -0.0819,-0.434725 0,-0.262506 0.0869,-0.453116 0.0886,-0.19061 0.24579,-0.316012 0.15215,-0.118713 0.35112,-0.173889 0.19897,-0.05518 0.41299,-0.05518 0.19228,0 0.35447,0.0418 0.16218,0.0418 0.30263,0.108681 v 0.513309 h -0.0853 q -0.0351,-0.0301 -0.0853,-0.07023 -0.0485,-0.04013 -0.12039,-0.07858 -0.0686,-0.03678 -0.15048,-0.06019 -0.0819,-0.02508 -0.19061,-0.02508 -0.24077,0 -0.37119,0.153826 -0.12874,0.152154 -0.12874,0.41466 0,0.270867 0.13209,0.411317 0.13376,0.140449 0.37787,0.140449 0.1137,0 0.20399,-0.02508 0.092,-0.02675 0.15215,-0.06186 0.0568,-0.03344 0.10032,-0.07022 0.0435,-0.03678 0.0803,-0.0719 h 0.0853 v 0.513309 q -0.14212,0.06688 -0.29762,0.105337 -0.15382,0.04013 -0.34109,0.04013 z"
           inkscape:connector-curvature="0" />
        <path
           id="path7615"
           style="font-style:normal;font-variant:normal;font-weight:bold;font-stretch:normal;font-family:sans-serif;-inkscape-font-specification:'sans-serif Bold';fill:#ffffff;stroke-width:0.25682184"
           d="m 137.73424,80.10981 h -0.60025 v -0.652087 h -0.2692 l -0.44977,0.652087 h -0.67382 l 0.53839,-0.735688 q -0.18894,-0.08527 -0.28759,-0.214018 -0.097,-0.130417 -0.097,-0.359484 0,-0.155497 0.0602,-0.260834 0.0619,-0.105337 0.16553,-0.180578 0.092,-0.06354 0.21569,-0.0953 0.1254,-0.03177 0.27922,-0.03177 h 1.11858 z m -0.60025,-1.019931 v -0.468164 h -0.35614 q -0.12373,0 -0.19396,0.05685 -0.0685,0.05518 -0.0685,0.162186 0,0.132089 0.0685,0.19061 0.0686,0.05852 0.20399,0.05852 z"
           inkscape:connector-curvature="0" />
      </g>
    </g>
  </g>
</svg>
