<?xml version="1.0" encoding="UTF-8" standalone="no"?>
<!-- Created with Inkscape (http://www.inkscape.org/) -->

<svg
   xmlns:dc="http://purl.org/dc/elements/1.1/"
   xmlns:cc="http://creativecommons.org/ns#"
   xmlns:rdf="http://www.w3.org/1999/02/22-rdf-syntax-ns#"
   xmlns:svg="http://www.w3.org/2000/svg"
   xmlns="http://www.w3.org/2000/svg"
   xmlns:sodipodi="http://sodipodi.sourceforge.net/DTD/sodipodi-0.dtd"
   xmlns:inkscape="http://www.inkscape.org/namespaces/inkscape"
   width="10.670381mm"
   height="4.0730267mm"
   viewBox="0 0 10.67038 4.0730267"
   version="1.1"
   id="svg8"
   inkscape:version="0.92.2 5c3e80d, 2017-08-06"
   sodipodi:docname="header-phone-icon.svg">
  <defs
     id="defs2" />
  <sodipodi:namedview
     id="base"
     pagecolor="#ffffff"
     bordercolor="#666666"
     borderopacity="1.0"
     inkscape:pageopacity="0.0"
     inkscape:pageshadow="2"
     inkscape:zoom="7.9195959"
     inkscape:cx="33.269027"
     inkscape:cy="1.581584"
     inkscape:document-units="mm"
     inkscape:current-layer="layer1"
     showgrid="false"
     inkscape:snap-global="false"
     fit-margin-top="0"
     fit-margin-left="0"
     fit-margin-right="0"
     fit-margin-bottom="0"
     inkscape:window-width="1470"
     inkscape:window-height="1335"
     inkscape:window-x="0"
     inkscape:window-y="1"
     inkscape:window-maximized="0" />
  <metadata
     id="metadata5">
    <rdf:RDF>
      <cc:Work
         rdf:about="">
        <dc:format>image/svg+xml</dc:format>
        <dc:type
           rdf:resource="http://purl.org/dc/dcmitype/StillImage" />
        <dc:title></dc:title>
      </cc:Work>
    </rdf:RDF>
  </metadata>
  <g
     inkscape:label="Layer 1"
     inkscape:groupmode="layer"
     id="layer1"
     transform="translate(-135.4104,-97.831043)">
    <g
       id="g1504">
      <path
         inkscape:connector-curvature="0"
         id="path5547"
         d="m 138.43411,101.90407 c -0.18163,-1.8e-4 -0.38635,-0.0393 -0.61324,-0.11721 -0.0803,-0.0276 -0.25273,-0.0961 -0.33062,-0.13136 -0.25019,-0.11333 -0.48065,-0.24683 -0.70239,-0.40688 -0.0946,-0.0683 -0.31391,-0.25032 -0.40053,-0.33245 -0.26972,-0.25575 -0.47957,-0.51083 -0.6587,-0.80064 -0.15379,-0.24882 -0.2514,-0.46385 -0.28832,-0.635096 -0.0175,-0.07894 -0.0313,-0.197192 -0.0298,-0.252479 0.002,-0.127464 0.0273,-0.194371 0.12079,-0.31743 0.0669,-0.08813 0.27095,-0.333345 0.30426,-0.365691 0.0523,-0.05078 0.099,-0.07363 0.16298,-0.07974 0.0705,-0.0067 0.13177,0.0099 0.19315,0.0526 0.0448,0.03107 0.43211,0.349198 0.52088,0.427758 0.10903,0.09648 0.13315,0.127713 0.14717,0.190527 0.0123,0.05611 0.0106,0.114545 -0.005,0.155591 -0.0182,0.04735 -0.0477,0.08875 -0.19406,0.271871 -0.12978,0.162439 -0.15702,0.200509 -0.15545,0.217259 0.002,0.0198 0.0668,0.128162 0.12388,0.206692 0.10398,0.143118 0.26161,0.303288 0.46047,0.467778 0.2591,0.21434 0.46373,0.34048 0.70036,0.43173 0.0412,0.0159 0.0789,0.0285 0.0838,0.028 0.0146,-0.001 0.0482,-0.037 0.17162,-0.18175 0.13961,-0.16388 0.17526,-0.20306 0.21324,-0.23437 0.0461,-0.038 0.0666,-0.0464 0.12876,-0.0525 0.0859,-0.008 0.12854,0.003 0.1955,0.0503 0.0514,0.0365 0.50053,0.40608 0.56272,0.46287 0.0496,0.0453 0.0779,0.0802 0.0967,0.11941 0.01,0.0204 0.0122,0.033 0.0167,0.0813 0.008,0.0826 -1.1e-4,0.10753 -0.0628,0.19855 -0.0362,0.0526 -0.21835,0.27677 -0.28629,0.35247 -0.0883,0.0983 -0.14979,0.13862 -0.25319,0.16575 -0.0469,0.0124 -0.16799,0.0271 -0.22192,0.027 z m 0.18109,-1.87889 c -0.0265,-0.005 -0.0671,-0.0263 -0.0904,-0.0466 -0.0491,-0.0428 -0.0647,-0.0763 -0.0866,-0.186782 -0.0238,-0.12022 -0.046,-0.18931 -0.0859,-0.268375 -0.0874,-0.172703 -0.21533,-0.303567 -0.38224,-0.39126 -0.13429,-0.07053 -0.26074,-0.0985 -0.45037,-0.09956 -0.12411,-6.91e-4 -0.17383,-0.01262 -0.21321,-0.05113 -0.0315,-0.03084 -0.062,-0.106491 -0.0613,-0.152306 0.001,-0.06395 0.0307,-0.129444 0.074,-0.162868 0.0219,-0.01693 0.0625,-0.03595 0.0942,-0.04412 0.0322,-0.0083 0.14715,-0.01055 0.23203,-0.0045 0.37214,0.02648 0.69421,0.192469 0.92413,0.476305 0.0923,0.114041 0.17474,0.257659 0.21895,0.381782 0.0416,0.116983 0.0771,0.301312 0.0707,0.368682 -0.007,0.0765 -0.0601,0.142982 -0.13396,0.167882 -0.0279,0.01 -0.0906,0.0168 -0.11008,0.0127 z m 0.76387,-0.108518 c -0.0598,-0.0108 -0.10644,-0.0448 -0.12877,-0.0941 -0.015,-0.033 -0.0218,-0.0601 -0.0375,-0.14635 -0.0435,-0.241305 -0.0991,-0.404065 -0.197,-0.577218 -0.11161,-0.197451 -0.29943,-0.408072 -0.48276,-0.541303 -0.28789,-0.209202 -0.60506,-0.303155 -1.03467,-0.306492 -0.13037,-0.001 -0.17853,-0.0089 -0.21205,-0.03477 -0.0487,-0.0376 -0.0748,-0.08552 -0.0807,-0.148661 -0.006,-0.06524 0.009,-0.122917 0.044,-0.164933 0.0391,-0.0472 0.0836,-0.06209 0.20518,-0.06854 0.26444,-0.01401 0.50087,0.01697 0.75115,0.09842 0.22729,0.07396 0.4105,0.171111 0.63376,0.336065 0.18017,0.133129 0.38903,0.375719 0.53045,0.61616 0.1401,0.238204 0.23327,0.516349 0.25904,0.773402 0.009,0.0846 0.007,0.10765 -0.009,0.14886 -0.0105,0.0265 -0.0436,0.062 -0.0765,0.0824 -0.0296,0.0183 -0.0312,0.0188 -0.0855,0.025 -0.0393,0.005 -0.0621,0.005 -0.0788,0.002 z"
         style="opacity:1;fill:#f64747;fill-opacity:0.99215686;stroke-width:0.004252" />
      <path
         transform="matrix(0.26458333,0,0,0.26458333,135.29229,92.066885)"
         id="rect1493"
         d="m 37.570312,26.634766 -1.113281,1.029296 1.28711,1.300782 H 21.072266 v 1.519531 h 16.783203 l -1.398438,1.412109 1.113281,1.029297 3.205079,-3.162109 -0.06836,-0.01758 0.04687,-0.01563 L 40,28.998047 v -0.0332 h -0.0332 z"
         style="opacity:1;fill:#f74747;fill-opacity:1;stroke:none;stroke-width:1.87653303;stroke-miterlimit:4;stroke-dasharray:none"
         inkscape:connector-curvature="0" />
    </g>
  </g>
</svg>
