<?xml version="1.0" encoding="UTF-8" standalone="no"?>
<!-- Created with Inkscape (http://www.inkscape.org/) -->

<svg
   xmlns:dc="http://purl.org/dc/elements/1.1/"
   xmlns:cc="http://creativecommons.org/ns#"
   xmlns:rdf="http://www.w3.org/1999/02/22-rdf-syntax-ns#"
   xmlns:svg="http://www.w3.org/2000/svg"
   xmlns="http://www.w3.org/2000/svg"
   xmlns:sodipodi="http://sodipodi.sourceforge.net/DTD/sodipodi-0.dtd"
   xmlns:inkscape="http://www.inkscape.org/namespaces/inkscape"
   width="5.2916698mm"
   height="5.315506mm"
   viewBox="0 0 5.2916698 5.315506"
   version="1.1"
   id="svg8"
   inkscape:version="0.92.2 5c3e80d, 2017-08-06"
   sodipodi:docname="law-icon-м.svg">
  <defs
     id="defs2" />
  <sodipodi:namedview
     id="base"
     pagecolor="#ffffff"
     bordercolor="#666666"
     borderopacity="1.0"
     inkscape:pageopacity="0.0"
     inkscape:pageshadow="2"
     inkscape:zoom="15.839192"
     inkscape:cx="-5.3728101"
     inkscape:cy="-5.528498"
     inkscape:document-units="mm"
     inkscape:current-layer="layer1"
     showgrid="false"
     inkscape:snap-global="false"
     fit-margin-top="0"
     fit-margin-left="0"
     fit-margin-right="0"
     fit-margin-bottom="0"
     inkscape:window-width="1470"
     inkscape:window-height="1335"
     inkscape:window-x="0"
     inkscape:window-y="1"
     inkscape:window-maximized="0" />
  <metadata
     id="metadata5">
    <rdf:RDF>
      <cc:Work
         rdf:about="">
        <dc:format>image/svg+xml</dc:format>
        <dc:type
           rdf:resource="http://purl.org/dc/dcmitype/StillImage" />
        <dc:title></dc:title>
      </cc:Work>
    </rdf:RDF>
  </metadata>
  <g
     inkscape:label="Layer 1"
     inkscape:groupmode="layer"
     id="layer1"
     transform="translate(-116.20963,-84.26456)">
    <path
       inkscape:connector-curvature="0"
       id="path818"
       d="m 116.46944,84.264571 c -0.14396,0 -0.25981,0.115848 -0.25981,0.259814 v 4.795792 c 0,0.143969 0.11585,0.259814 0.25981,0.259814 0,0 0.46226,1.69e-4 0.53535,0 0.0731,-1.68e-4 0.12402,-0.06063 0.16297,-0.09538 0.0214,-0.01912 0.0618,-0.07438 0.10598,-0.185635 0.0442,-0.111253 0.0515,-0.110484 0.17394,-0.116203 0.12246,-0.0057 2.5783,-3.74e-4 2.65661,-3.74e-4 0.0783,0 0.21804,-0.02112 0.28357,0.04641 0.0703,0.193373 0.10079,0.275031 0.28247,0.351171 h 0.57115 c 0.14397,0 0.25982,-0.115846 0.25982,-0.259814 v -4.795792 c 0,-0.143966 -0.11585,-0.259814 -0.25982,-0.259814 z m 0.37383,0.256074 h 3.8e-4 4.15358 c 0.14397,0 0.25981,0.04498 0.25981,0.188944 v 4.236397 c 0,0.122862 0.008,0.315017 -0.0323,0.360766 -0.0481,0.05527 -0.45331,0.03709 -0.4935,-0.0089 -0.1181,-0.257422 -0.10724,-0.368803 -0.26776,-0.335726 -0.16052,0.03308 -3.08307,-0.01689 -3.24896,-3.74e-4 -0.16589,0.01652 -0.0987,0.35868 -0.43912,0.385761 -0.30913,0 -0.31008,-0.115848 -0.31008,-0.259814 V 84.70956 c 0,-0.143966 0.01,-0.188943 0.15351,-0.188943 z"
       style="fill:#7d3803;stroke-width:0.00822337;fill-opacity:1"
       sodipodi:nodetypes="csscccccsccsssccccssscczzcsscc" />
    <g
       id="g836"
       transform="translate(-0.11774,0.13853991)"
       style="fill:#7d3803;fill-opacity:1">
      <path
         inkscape:connector-curvature="0"
         id="path820"
         d="m 118.96991,84.514266 -0.39914,0.481985 -0.57705,-0.238643 -0.12705,0.612191 -0.62234,0.05463 0.16976,0.601289 -0.52404,0.338895 0.42978,0.453411 -0.30716,0.544031 0.59061,0.200758 -0.0182,0.625014 0.61702,-0.09743 0.273,0.561979 0.50227,-0.371744 0.50335,0.37033 0.27093,-0.563263 0.61661,0.09512 -0.0211,-0.623574 0.59066,-0.204883 -0.30965,-0.541941 0.42819,-0.455011 -0.52645,-0.337703 0.1686,-0.600629 -0.62259,-0.05379 -0.13088,-0.612062 -0.57622,0.241739 z m 3.8e-4,0.36637 0.33049,0.397239 0.47498,-0.198766 0.10819,0.502607 0.51383,0.04469 -0.13879,0.496725 0.43459,0.27939 -0.35444,0.37566 0.25574,0.448588 -0.48735,0.167441 0.003,0.08587 0.0138,0.429426 -0.50947,-0.07849 -0.22409,0.464337 -0.41495,-0.304411 -0.41304,0.30678 -0.22642,-0.464616 -0.50924,0.08039 0.0147,-0.5146 -0.48841,-0.167124 0.25456,-0.448635 -0.35588,-0.375743 0.43277,-0.279465 -0.13972,-0.495842 0.5142,-0.04692 0.10483,-0.504823 0.47644,0.197474 z"
         style="color:#000000;font-style:normal;font-variant:normal;font-weight:normal;font-stretch:normal;font-size:medium;line-height:normal;font-family:sans-serif;font-variant-ligatures:normal;font-variant-position:normal;font-variant-caps:normal;font-variant-numeric:normal;font-variant-alternates:normal;font-feature-settings:normal;text-indent:0;text-align:start;text-decoration:none;text-decoration-line:none;text-decoration-style:solid;text-decoration-color:#000000;letter-spacing:normal;word-spacing:normal;text-transform:none;writing-mode:lr-tb;direction:ltr;text-orientation:mixed;dominant-baseline:auto;baseline-shift:baseline;text-anchor:start;white-space:normal;shape-padding:0;clip-rule:nonzero;display:inline;overflow:visible;visibility:visible;opacity:1;isolation:auto;mix-blend-mode:normal;color-interpolation:sRGB;color-interpolation-filters:linearRGB;solid-color:#000000;solid-opacity:1;vector-effect:none;fill:#7d3803;fill-opacity:1;fill-rule:nonzero;stroke:none;stroke-width:0.23337072;stroke-linecap:butt;stroke-linejoin:miter;stroke-miterlimit:4;stroke-dasharray:none;stroke-dashoffset:0;stroke-opacity:1;color-rendering:auto;image-rendering:auto;shape-rendering:auto;text-rendering:auto;enable-background:accumulate" />
      <path
         inkscape:connector-curvature="0"
         id="path824"
         d="m 118.97285,85.487707 c -0.60402,0 -1.0951,0.491084 -1.0951,1.095091 0,0.604007 0.49108,1.097161 1.0951,1.097161 0.604,0 1.09715,-0.493154 1.09715,-1.097161 0,-0.604007 -0.49315,-1.095091 -1.09715,-1.095091 z m 0,0.262905 c 0.46194,0 0.83424,0.370236 0.83425,0.832186 0,0.46195 -0.37231,0.834256 -0.83425,0.834256 -0.46196,0 -0.83426,-0.372306 -0.83426,-0.834256 0,-0.46195 0.3723,-0.832186 0.83426,-0.832186 z"
         style="color:#000000;font-style:normal;font-variant:normal;font-weight:normal;font-stretch:normal;font-size:medium;line-height:normal;font-family:sans-serif;font-variant-ligatures:normal;font-variant-position:normal;font-variant-caps:normal;font-variant-numeric:normal;font-variant-alternates:normal;font-feature-settings:normal;text-indent:0;text-align:start;text-decoration:none;text-decoration-line:none;text-decoration-style:solid;text-decoration-color:#000000;letter-spacing:normal;word-spacing:normal;text-transform:none;writing-mode:lr-tb;direction:ltr;text-orientation:mixed;dominant-baseline:auto;baseline-shift:baseline;text-anchor:start;white-space:normal;shape-padding:0;clip-rule:nonzero;display:inline;overflow:visible;visibility:visible;opacity:1;isolation:auto;mix-blend-mode:normal;color-interpolation:sRGB;color-interpolation-filters:linearRGB;solid-color:#000000;solid-opacity:1;vector-effect:none;fill:#7d3803;fill-opacity:1;fill-rule:nonzero;stroke:none;stroke-width:0.26285496;stroke-linecap:butt;stroke-linejoin:miter;stroke-miterlimit:4;stroke-dasharray:none;stroke-dashoffset:0;stroke-opacity:1;color-rendering:auto;image-rendering:auto;shape-rendering:auto;text-rendering:auto;enable-background:accumulate" />
    </g>
  </g>
</svg>
