<?xml version="1.0" encoding="UTF-8" standalone="no"?>
<!-- Created with Inkscape (http://www.inkscape.org/) -->

<svg
   xmlns:dc="http://purl.org/dc/elements/1.1/"
   xmlns:cc="http://creativecommons.org/ns#"
   xmlns:rdf="http://www.w3.org/1999/02/22-rdf-syntax-ns#"
   xmlns:svg="http://www.w3.org/2000/svg"
   xmlns="http://www.w3.org/2000/svg"
   xmlns:sodipodi="http://sodipodi.sourceforge.net/DTD/sodipodi-0.dtd"
   xmlns:inkscape="http://www.inkscape.org/namespaces/inkscape"
   width="25.664583mm"
   height="25.664955mm"
   viewBox="0 0 25.664583 25.664955"
   version="1.1"
   id="svg8"
   inkscape:version="0.92.2 5c3e80d, 2017-08-06"
   sodipodi:docname="sticker-technology.svg">
  <defs
     id="defs2" />
  <sodipodi:namedview
     id="base"
     pagecolor="#ffffff"
     bordercolor="#666666"
     borderopacity="1.0"
     inkscape:pageopacity="0.0"
     inkscape:pageshadow="2"
     inkscape:zoom="3.959798"
     inkscape:cx="0.99982875"
     inkscape:cy="12.064102"
     inkscape:document-units="mm"
     inkscape:current-layer="layer1"
     showgrid="false"
     inkscape:snap-global="false"
     fit-margin-top="0"
     fit-margin-left="0"
     fit-margin-right="0"
     fit-margin-bottom="0"
     inkscape:window-width="1470"
     inkscape:window-height="1335"
     inkscape:window-x="0"
     inkscape:window-y="1"
     inkscape:window-maximized="0"
     showguides="true"
     inkscape:guide-bbox="true">
    <sodipodi:guide
       position="24.036317,73.133086"
       orientation="0,1"
       id="guide6227"
       inkscape:locked="false" />
    <sodipodi:guide
       position="22.84316,-30.640544"
       orientation="0,1"
       id="guide8376"
       inkscape:locked="false" />
    <sodipodi:guide
       position="25.583488,-14.293074"
       orientation="0,1"
       id="guide8378"
       inkscape:locked="false" />
  </sodipodi:namedview>
  <metadata
     id="metadata5">
    <rdf:RDF>
      <cc:Work
         rdf:about="">
        <dc:format>image/svg+xml</dc:format>
        <dc:type
           rdf:resource="http://purl.org/dc/dcmitype/StillImage" />
        <dc:title></dc:title>
      </cc:Work>
    </rdf:RDF>
  </metadata>
  <g
     inkscape:label="Layer 1"
     inkscape:groupmode="layer"
     id="layer1"
     transform="translate(-111.73246,-157.96878)">
    <g
       id="g6317"
       transform="matrix(0.74184052,0,0,0.74184052,32.157572,44.093964)">
      <circle
         r="16.971617"
         cy="170.80125"
         cx="124.56475"
         id="path6312"
         style="opacity:1;fill:#fdf1cf;fill-opacity:1;stroke:none;stroke-width:0.35583964;stroke-miterlimit:4;stroke-dasharray:none" />
      <path
         id="path6239"
         transform="matrix(0.26458333,0,0,0.26458333,132.70353,108.87636)"
         d="m -31.054688,168.66797 -1.427734,1.46484 -1.505859,-1.38476 -1.359375,1.52539 -1.566406,-1.31446 -1.291016,1.58399 -1.623047,-1.24219 -1.21875,1.64063 -1.675781,-1.16993 -1.144532,1.69532 -1.728515,-1.09375 -1.066406,1.74414 -1.775391,-1.01367 -0.986328,1.79101 -1.820313,-0.93555 -0.904297,1.83399 -1.859374,-0.85156 -0.822266,1.87109 -1.896484,-0.76758 -0.738282,1.9082 -1.927734,-0.68164 -0.650391,1.9375 L -62,176.61523 l -0.564453,1.96485 -1.980469,-0.50586 -0.476562,1.98828 -2.001954,-0.41602 -0.384765,2.00782 -2.019531,-0.32618 -0.294922,2.02344 -2.03125,-0.23633 -0.203125,2.03516 -2.039063,-0.14453 -0.113281,2.04102 -2.044922,-0.0508 -0.01953,2.04297 -2.044922,0.041 0.07031,2.04297 -2.039062,0.13086 0.162109,2.03711 -2.033203,0.22265 0.253906,2.0293 -2.021484,0.31445 0.345703,2.01563 -2.005859,0.40234 0.435547,1.99805 -1.984375,0.49414 0.523437,1.97656 -1.958984,0.58203 0.611328,1.95117 -1.931641,0.66797 0.697266,1.92188 -1.898438,0.75586 0.783204,1.88672 -1.863282,0.83984 0.867188,1.85156 -1.824219,0.92188 0.949219,1.81054 -1.78125,1.00391 1.03125,1.76562 -1.734375,1.08204 1.109375,1.71875 -1.685547,1.1582 1.185547,1.66797 -1.63086,1.23242 1.257813,1.61133 -1.574219,1.30664 1.330078,1.55273 -1.513672,1.375 1.398438,1.49219 -1.451172,1.44141 1.462891,1.42773 -1.384766,1.50391 1.527344,1.36133 -1.316406,1.5664 1.585937,1.29102 -1.24414,1.62304 1.642578,1.21875 -1.169922,1.67579 1.695312,1.14453 -1.09375,1.72851 1.744141,1.06641 -1.015625,1.77539 1.791016,0.98633 -0.933594,1.81836 1.832031,0.90625 -0.851563,1.85937 1.873047,0.82227 -0.767578,1.89648 1.90625,0.73633 -0.68164,1.92773 1.939453,0.65235 -0.595703,1.95703 1.966797,0.56445 -0.50586,1.98047 1.988281,0.47461 -0.417968,2.00195 2.009765,0.38672 -0.328125,2.01758 2.023438,0.29492 -0.234375,2.03125 2.035156,0.20508 -0.144531,2.03906 2.041015,0.11328 -0.05273,2.04297 2.044922,0.0215 0.03906,2.04492 2.042969,-0.0723 0.132813,2.04102 2.037109,-0.16211 0.222656,2.0332 2.029297,-0.2539 0.3125,2.01953 2.015625,-0.34375 0.404297,2.0039 1.998047,-0.43359 0.492187,1.98438 1.976563,-0.52344 0.582031,1.95898 1.951172,-0.61133 0.669922,1.93164 1.921875,-0.69921 0.753906,1.90039 1.888672,-0.78321 0.839844,1.86329 1.851562,-0.86719 0.921875,1.82422 1.810547,-0.95118 1.003906,1.78125 1.765625,-1.02929 1.082032,1.73437 1.71875,-1.10937 1.158203,1.68554 1.666015,-1.18554 1.234375,1.63086 1.611329,-1.25782 1.304687,1.57227 1.554687,-1.32812 1.373047,1.51367 1.492188,-1.39844 1.441406,1.45117 1.429688,-1.46484 1.503906,1.38476 1.361328,-1.52539 1.564453,1.31446 1.291016,-1.58399 1.623047,1.24414 1.21875,-1.64258 1.677734,1.16993 1.144531,-1.69532 1.726563,1.09375 1.066406,-1.74414 1.775391,1.01367 0.988281,-1.78906 1.818359,0.9336 0.9062502,-1.83399 1.859375,0.85156 0.8222657,-1.87109 1.8945312,0.76758 0.7382813,-1.90821 1.9277344,0.68165 0.6523437,-1.9375 1.95507812,0.59375 0.56445318,-1.96485 1.9824218,0.50586 L 3.5,288.03125 l 2.0019531,0.41602 0.3847657,-2.00782 2.0195312,0.32617 0.2949219,-2.02343 2.0312501,0.23633 0.203125,-2.03516 2.041015,0.14453 0.111329,-2.04101 2.044921,0.0527 0.02149,-2.04492 2.042969,-0.0391 -0.07031,-2.04492 2.041016,-0.13086 -0.16211,-2.03711 2.03125,-0.22265 -0.253906,-2.0293 2.021485,-0.31445 -0.34375,-2.01367 2.003906,-0.4043 -0.435547,-1.99805 1.984375,-0.49414 -0.523438,-1.97656 1.960938,-0.58203 -0.611328,-1.94922 1.93164,-0.66992 -0.699218,-1.92188 1.90039,-0.75586 -0.785156,-1.88672 1.865234,-0.83984 -0.86914,-1.85156 1.826172,-0.92188 -0.951172,-1.81054 1.78125,-1.00391 -1.03125,-1.76563 1.736328,-1.08203 -1.109375,-1.71875 1.683594,-1.1582 -1.183594,-1.66602 1.630859,-1.23437 -1.259765,-1.61133 1.574218,-1.30469 -1.330078,-1.55468 1.513672,-1.375 -1.396484,-1.49219 1.449219,-1.44141 -1.462891,-1.42773 1.384765,-1.50391 -1.52539,-1.36133 1.314453,-1.5664 -1.585937,-1.29102 1.24414,-1.62304 -1.640625,-1.21875 1.169922,-1.67579 -1.695313,-1.14453 1.09375,-1.72656 -1.746093,-1.06836 1.015625,-1.77344 -1.791016,-0.98828 0.933594,-1.81836 -1.832031,-0.90625 0.851562,-1.85937 -1.871094,-0.82227 0.765625,-1.89453 -1.90625,-0.73828 0.681641,-1.92773 -1.9375,-0.65235 0.59375,-1.95703 -1.964844,-0.56445 0.50586,-1.98047 -1.988282,-0.47461 0.416016,-2.00195 -2.007813,-0.38672 0.326172,-2.01758 -2.023437,-0.29492 0.236328,-2.03125 -2.035156,-0.20508 0.144531,-2.03906 -2.042969,-0.11328 0.05273,-2.04297 -2.044922,-0.0215 -0.03906,-2.04492 -2.042969,0.0723 -0.130859,-2.04102 -2.0390624,0.16211 -0.2226562,-2.0332 -2.0273438,0.2539 -0.3144531,-2.01953 -2.015625,0.34375 -0.4042969,-2.0039 -1.9960937,0.43359 -0.4941407,-1.98438 -1.97656245,0.5254 -0.58203125,-1.96094 -1.9511719,0.61133 -0.6679687,-1.93165 -1.921875,0.69922 -0.7558594,-1.90039 -1.8886719,0.78321 -0.8398437,-1.86328 -1.8496094,0.86718 -0.9238285,-1.82422 -1.810547,0.95118 -1.001953,-1.78125 -1.765625,1.02929 -1.083984,-1.73437 -1.716797,1.10937 -1.160156,-1.68554 -1.666016,1.18554 -1.232422,-1.63086 -1.611328,1.25782 -1.30664,-1.57227 -1.552735,1.32813 -1.375,-1.51368 -1.492187,1.39844 z m 0.294922,4.89648 a 60.482879,60.482879 0 0 1 60.482422,60.48243 60.482879,60.482879 0 0 1 -60.482422,60.48242 60.482879,60.482879 0 0 1 -60.484375,-60.48242 60.482879,60.482879 0 0 1 60.484375,-60.48243 z"
         style="opacity:1;fill:#e64536;fill-opacity:1;stroke:none;stroke-width:3.95147228;stroke-miterlimit:4;stroke-dasharray:none"
         inkscape:connector-curvature="0" />
      <path
         id="circle6306"
         transform="matrix(0.26458333,0,0,0.26458333,132.70353,108.87636)"
         d="m -30.759766,175.20508 a 58.841382,58.841382 0 0 0 -58.841796,58.8418 58.841382,58.841382 0 0 0 58.841796,58.84179 58.841382,58.841382 0 0 0 58.839844,-58.84179 58.841382,58.841382 0 0 0 -58.839844,-58.8418 z m 0,5.17773 a 53.664353,53.664353 0 0 1 53.664063,53.66407 53.664353,53.664353 0 0 1 -53.664063,53.66406 53.664353,53.664353 0 0 1 -53.666015,-53.66406 53.664353,53.664353 0 0 1 53.666015,-53.66407 z"
         style="opacity:1;fill:#e64536;fill-opacity:1;stroke:none;stroke-width:1.76721013;stroke-miterlimit:4;stroke-dasharray:none"
         inkscape:connector-curvature="0" />
    </g>
    <path
       style="fill:#1b1b1b;fill-opacity:1;stroke:#000000;stroke-width:0.09813932;stroke-miterlimit:4;stroke-dasharray:none"
       d="m 124.21463,174.52242 c -0.18172,-0.17514 -0.44208,-0.42537 -0.57859,-0.55608 -0.25418,-0.24339 -0.97114,-0.93544 -1.1516,-1.11163 -0.1288,-0.12573 -0.59778,-0.57866 -1.32045,-1.2752 -0.31409,-0.30274 -0.98265,-0.94826 -1.48567,-1.43448 -0.50302,-0.48621 -0.9582,-0.92429 -1.01151,-0.97352 -0.0533,-0.0493 -0.0969,-0.0968 -0.0969,-0.10582 0,-0.0133 1.60576,-1.83171 1.94699,-2.20495 l 0.0913,-0.0999 3.96185,0.005 3.96186,0.005 0.20389,0.22814 c 0.11213,0.12546 0.53011,0.596 0.92885,1.04563 0.39873,0.44962 0.76322,0.8589 0.80996,0.9095 0.0467,0.0506 0.085,0.0995 0.085,0.10862 0,0.009 -0.0794,0.0918 -0.17633,0.18365 -0.097,0.0919 -0.48572,0.46649 -0.86388,0.83245 -0.37815,0.36597 -0.82103,0.79373 -0.98419,0.95058 -0.16314,0.15684 -0.49662,0.47844 -0.74107,0.71467 -1.20463,1.1641 -1.55589,1.50327 -1.73067,1.67113 -0.10459,0.10042 -0.48005,0.46236 -0.83437,0.80429 -0.35432,0.34194 -0.65319,0.6217 -0.66415,0.6217 -0.011,0 -0.1686,-0.14329 -0.35032,-0.31844 z m 0.39356,-0.3327 c 0.0154,-0.0444 0.31497,-0.89353 0.66552,-1.88688 0.35057,-0.99335 0.73645,-2.08841 0.85752,-2.43347 0.12107,-0.34506 0.22689,-0.64236 0.23515,-0.66065 0.0142,-0.0315 -0.0806,-0.0333 -1.80164,-0.0333 -1.53138,0 -1.81481,0.004 -1.80487,0.0261 0.007,0.0143 0.16467,0.46138 0.35153,0.99335 0.18684,0.53199 0.35723,1.0143 0.37864,1.0718 0.0214,0.0575 0.26868,0.75689 0.54947,1.55419 0.2808,0.7973 0.51728,1.44962 0.52553,1.44962 0.009,0 0.0277,-0.0363 0.0432,-0.0808 z m -0.36435,-0.01 c -0.0343,-0.10626 -1.49865,-4.27017 -1.70485,-4.84792 l -0.0559,-0.15685 h -1.72169 c -0.94693,0 -1.72168,0.006 -1.72168,0.0125 0,0.007 0.0687,0.0775 0.15256,0.15684 0.0839,0.0794 0.5644,0.54215 1.06776,1.02837 0.50336,0.48623 1.40276,1.35457 1.99869,1.92967 0.59592,0.5751 1.28477,1.24026 1.53073,1.47813 0.24599,0.23789 0.45129,0.43252 0.45623,0.43252 0.005,0 0.003,-0.015 -10e-4,-0.0333 z m 1.16127,-0.46103 c 0.23182,-0.22481 0.52806,-0.5114 0.65831,-0.63688 0.13026,-0.12548 0.5733,-0.55324 0.98454,-0.95058 0.41122,-0.39734 0.89899,-0.86813 1.08392,-1.04621 1.21942,-1.17423 1.95799,-1.89083 1.95799,-1.89974 0,-0.006 -0.77466,-0.0103 -1.72145,-0.0103 h -1.72145 l -0.0666,0.18536 c -0.0807,0.22444 -0.36104,1.01776 -0.539,1.52567 -0.0714,0.2039 -0.36241,1.03041 -0.64662,1.83668 -0.28421,0.80629 -0.51674,1.47339 -0.51674,1.48247 0,0.0228 0.0453,-0.0191 0.52721,-0.48644 z m -3.16674,-4.90018 c -0.32853,-0.37928 -1.54929,-1.74508 -1.5638,-1.7496 -0.0127,-0.004 -1.47392,1.62172 -1.65445,1.8407 -0.0303,0.0369 -0.0142,0.0372 1.64937,0.0372 h 1.68004 z m 3.98762,0.10455 c -0.012,-0.0131 -0.28737,-0.32319 -0.61188,-0.68916 -0.32449,-0.36596 -0.68874,-0.77662 -0.80947,-0.91254 -0.12072,-0.13594 -0.22895,-0.24715 -0.24051,-0.24715 -0.0159,0 -1.36789,1.5046 -1.63574,1.82034 l -0.0444,0.0523 h 1.68194 c 1.34231,0 1.67751,-0.005 1.66003,-0.0237 z m 3.88337,-0.0134 c -0.18317,-0.22176 -1.64188,-1.84467 -1.65449,-1.84074 -0.0131,0.004 -0.86532,0.95771 -1.58901,1.77808 l -0.088,0.0998 h 1.6811 c 1.66357,0 1.68081,-4.5e-4 1.65044,-0.0372 z m -7.10733,-0.4628 c 0.20471,-0.23216 0.57882,-0.65452 0.83138,-0.93859 0.25255,-0.28406 0.45331,-0.52147 0.44612,-0.52756 -0.0175,-0.0149 -3.30496,-0.0142 -3.32251,6.7e-4 -0.008,0.007 0.24949,0.30803 0.5713,0.67016 0.3218,0.36213 0.69625,0.78431 0.83212,0.93816 0.13587,0.15385 0.25207,0.27963 0.25821,0.27952 0.006,-1.2e-4 0.17868,-0.19015 0.38338,-0.42231 z m 3.76703,0.1428 c 0.13586,-0.15385 0.51031,-0.57602 0.83213,-0.93816 0.32178,-0.36214 0.57887,-0.66371 0.57129,-0.67016 -0.0177,-0.015 -3.30504,-0.0155 -3.32267,-4.5e-4 -0.008,0.007 0.19338,0.24358 0.44585,0.52757 0.25247,0.284 0.62664,0.70631 0.83152,0.93846 0.20486,0.23217 0.3775,0.42221 0.38366,0.42232 0.006,1.2e-4 0.12235,-0.12567 0.25822,-0.27952 z"
       id="path8787"
       inkscape:connector-curvature="0" />
  </g>
</svg>
