<?xml version="1.0" encoding="UTF-8" standalone="no"?>
<!-- Created with Inkscape (http://www.inkscape.org/) -->

<svg
   xmlns:dc="http://purl.org/dc/elements/1.1/"
   xmlns:cc="http://creativecommons.org/ns#"
   xmlns:rdf="http://www.w3.org/1999/02/22-rdf-syntax-ns#"
   xmlns:svg="http://www.w3.org/2000/svg"
   xmlns="http://www.w3.org/2000/svg"
   xmlns:sodipodi="http://sodipodi.sourceforge.net/DTD/sodipodi-0.dtd"
   xmlns:inkscape="http://www.inkscape.org/namespaces/inkscape"
   width="25.664583mm"
   height="25.665073mm"
   viewBox="0 0 25.664583 25.665073"
   version="1.1"
   id="svg8"
   inkscape:version="0.92.2 5c3e80d, 2017-08-06"
   sodipodi:docname="sticker-honesty.svg">
  <defs
     id="defs2" />
  <sodipodi:namedview
     id="base"
     pagecolor="#ffffff"
     bordercolor="#666666"
     borderopacity="1.0"
     inkscape:pageopacity="0.0"
     inkscape:pageshadow="2"
     inkscape:zoom="2.8"
     inkscape:cx="-30.267215"
     inkscape:cy="28.373844"
     inkscape:document-units="mm"
     inkscape:current-layer="layer1"
     showgrid="false"
     inkscape:snap-global="false"
     fit-margin-top="0"
     fit-margin-left="0"
     fit-margin-right="0"
     fit-margin-bottom="0"
     inkscape:window-width="1470"
     inkscape:window-height="1335"
     inkscape:window-x="0"
     inkscape:window-y="1"
     inkscape:window-maximized="0"
     showguides="true"
     inkscape:guide-bbox="true">
    <sodipodi:guide
       position="24.035932,73.133353"
       orientation="0,1"
       id="guide6227"
       inkscape:locked="false" />
  </sodipodi:namedview>
  <metadata
     id="metadata5">
    <rdf:RDF>
      <cc:Work
         rdf:about="">
        <dc:format>image/svg+xml</dc:format>
        <dc:type
           rdf:resource="http://purl.org/dc/dcmitype/StillImage" />
        <dc:title></dc:title>
      </cc:Work>
    </rdf:RDF>
  </metadata>
  <g
     inkscape:label="Layer 1"
     inkscape:groupmode="layer"
     id="layer1"
     transform="translate(-111.73284,-157.96893)">
    <g
       id="g2350"
       transform="matrix(0.7418348,0,0,0.7418348,32.158384,44.094995)">
      <circle
         r="16.971617"
         cy="170.80125"
         cx="124.56475"
         id="path6312"
         style="opacity:1;fill:#fdf1cf;fill-opacity:1;stroke:none;stroke-width:0.35583964;stroke-miterlimit:4;stroke-dasharray:none" />
      <path
         id="path6239"
         d="m 124.48698,153.50309 -0.37776,0.38758 -0.39842,-0.36639 -0.35967,0.40359 -0.41445,-0.34778 -0.34158,0.4191 -0.42943,-0.32867 -0.32246,0.43409 -0.44338,-0.30955 -0.30283,0.44856 -0.45733,-0.28939 -0.28216,0.46147 -0.46974,-0.2682 -0.26096,0.47387 -0.48163,-0.24753 -0.23926,0.48524 -0.49196,-0.22531 -0.21755,0.49506 -0.50178,-0.20309 -0.19534,0.50488 -0.51005,-0.18035 -0.17208,0.51263 -0.5178,-0.15709 -0.14934,0.51986 -0.524,-0.13384 -0.12609,0.52607 -0.52968,-0.11008 -0.10181,0.53124 -0.53433,-0.0863 -0.078,0.53537 -0.53744,-0.0625 -0.0537,0.53847 -0.5395,-0.0382 -0.03,0.54002 -0.54105,-0.0134 -0.005,0.54053 -0.54106,0.0108 0.0186,0.54054 -0.53951,0.0346 0.0429,0.53898 -0.53796,0.0589 0.0672,0.53692 -0.53485,0.0832 0.0915,0.5333 -0.53072,0.10646 0.11524,0.52865 -0.52503,0.13074 0.13849,0.52296 -0.51831,0.154 0.16174,0.51624 -0.51108,0.17674 0.18449,0.5085 -0.5023,0.19998 0.20723,0.4992 -0.493,0.22221 0.22945,0.48989 -0.48266,0.24391 0.25115,0.47904 -0.47129,0.26562 0.27285,0.46715 -0.45889,0.28629 0.29352,0.45475 -0.44596,0.30644 0.31367,0.44132 -0.4315,0.32608 0.3328,0.42633 -0.41651,0.34572 0.35191,0.41082 -0.40049,0.3638 0.37001,0.39481 -0.38396,0.38138 0.38706,0.37775 -0.36639,0.39791 0.40411,0.36018 -0.3483,0.41445 0.41961,0.34158 -0.32918,0.42943 0.4346,0.32246 -0.30954,0.44339 0.44855,0.30282 -0.28939,0.45733 0.46148,0.28216 -0.26872,0.46974 0.47387,0.26096 -0.24701,0.48111 0.48472,0.23978 -0.22531,0.49196 0.49558,0.21756 -0.20309,0.50177 0.50436,0.19483 -0.18035,0.51004 0.51315,0.1726 -0.15761,0.5178 0.52038,0.14934 -0.13384,0.524 0.52606,0.12558 -0.11058,0.52968 0.53175,0.10232 -0.0868,0.53382 0.53537,0.078 -0.062,0.53743 0.53846,0.0543 -0.0382,0.5395 0.54002,0.03 -0.0139,0.54053 0.54105,0.006 0.0103,0.54105 0.54053,-0.0191 0.0351,0.54002 0.53899,-0.0429 0.0589,0.53795 0.53692,-0.0672 0.0827,0.53434 0.5333,-0.0909 0.10697,0.5302 0.52865,-0.11472 0.13022,0.52503 0.52297,-0.13849 0.154,0.51831 0.51624,-0.16175 0.17725,0.51108 0.5085,-0.185 0.19947,0.50281 0.49971,-0.20722 0.22221,0.493 0.48989,-0.22945 0.24392,0.48266 0.47904,-0.25167 0.26561,0.47129 0.46716,-0.27233 0.28629,0.45888 0.45475,-0.29352 0.30644,0.44597 0.4408,-0.31367 0.32659,0.43149 0.42634,-0.33279 0.34519,0.41599 0.41135,-0.3514 0.36328,0.4005 0.39481,-0.37001 0.38137,0.38396 0.37828,-0.38758 0.3979,0.36639 0.36019,-0.40359 0.41393,0.34778 0.34158,-0.4191 0.42943,0.32918 0.32246,-0.4346 0.4439,0.30955 0.30282,-0.44856 0.45682,0.28939 0.28216,-0.46147 0.46974,0.2682 0.26148,-0.47335 0.48111,0.24701 0.23978,-0.48524 0.49195,0.22531 0.21756,-0.49506 0.50126,0.20309 0.19534,-0.50489 0.51005,0.18036 0.1726,-0.51263 0.51728,0.15709 0.14934,-0.51986 0.52452,0.13384 0.12557,-0.52605 0.52969,0.11007 0.1018,-0.53124 0.53433,0.0863 0.078,-0.53536 0.53744,0.0625 0.0537,-0.53847 0.54002,0.0382 0.0295,-0.54002 0.54105,0.0139 0.006,-0.54105 0.54054,-0.0103 -0.0186,-0.54106 0.54002,-0.0346 -0.0429,-0.53898 0.53744,-0.0589 -0.0672,-0.53692 0.53485,-0.0832 -0.091,-0.53278 0.5302,-0.10698 -0.11524,-0.52865 0.52503,-0.13074 -0.13849,-0.52296 0.51883,-0.154 -0.16174,-0.51573 0.51108,-0.17725 -0.18501,-0.5085 0.50282,-0.19998 -0.20774,-0.4992 0.49351,-0.22221 -0.22996,-0.48989 0.48317,-0.24391 -0.25166,-0.47904 0.47129,-0.26562 -0.27286,-0.46716 0.45941,-0.28628 -0.29352,-0.45475 0.44545,-0.30645 -0.31316,-0.4408 0.4315,-0.32659 -0.33332,-0.42633 0.41651,-0.3452 -0.35191,-0.41134 0.40049,-0.3638 -0.36949,-0.39481 0.38344,-0.38138 -0.38705,-0.37775 0.36638,-0.39791 -0.40359,-0.36018 0.34778,-0.41445 -0.41961,-0.34158 0.32918,-0.42943 -0.43408,-0.32246 0.30954,-0.44339 -0.44855,-0.30282 0.28938,-0.45682 -0.46198,-0.28267 0.26871,-0.46922 -0.47387,-0.26148 0.24702,-0.48111 -0.48473,-0.23978 0.22531,-0.49196 -0.49506,-0.21756 0.20257,-0.50126 -0.50436,-0.19534 0.18035,-0.51004 -0.51263,-0.1726 0.1571,-0.5178 -0.51987,-0.14934 0.13384,-0.524 -0.52606,-0.12558 0.11007,-0.52968 -0.53124,-0.10232 0.0863,-0.53382 -0.53536,-0.078 0.0625,-0.53743 -0.53846,-0.0543 0.0382,-0.53951 -0.54054,-0.03 0.0139,-0.54053 -0.54105,-0.006 -0.0103,-0.54105 -0.54054,0.0191 -0.0346,-0.54002 -0.53951,0.0429 -0.0589,-0.53795 -0.5364,0.0672 -0.0832,-0.53433 -0.5333,0.0909 -0.10697,-0.5302 -0.52813,0.11472 -0.13074,-0.52503 -0.52297,0.13901 -0.15399,-0.51883 -0.51625,0.16175 -0.17673,-0.51109 -0.5085,0.18501 -0.19999,-0.50281 -0.49971,0.20722 -0.22221,-0.49299 -0.48937,0.22944 -0.24443,-0.48266 -0.47904,0.25167 -0.2651,-0.47129 -0.46716,0.27233 -0.2868,-0.45889 -0.45424,0.29353 -0.30696,-0.44597 -0.4408,0.31367 -0.32608,-0.43149 -0.42633,0.33279 -0.34571,-0.41599 -0.41083,0.3514 -0.3638,-0.4005 -0.39481,0.37001 z m 0.078,1.29553 a 16.002762,16.002762 0 0 1 16.00264,16.00264 16.002762,16.002762 0 0 1 -16.00264,16.00264 16.002762,16.002762 0 0 1 -16.00316,-16.00264 16.002762,16.002762 0 0 1 16.00316,-16.00264 z"
         style="opacity:1;fill:#e64536;fill-opacity:1;stroke:none;stroke-width:1.04549372;stroke-miterlimit:4;stroke-dasharray:none"
         inkscape:connector-curvature="0" />
      <path
         id="circle6306"
         d="m 124.56501,155.2327 a 15.568449,15.568449 0 0 0 -15.56856,15.56856 15.568449,15.568449 0 0 0 15.56856,15.56856 15.568449,15.568449 0 0 0 15.56804,-15.56856 15.568449,15.568449 0 0 0 -15.56804,-15.56856 z m 0,1.36994 a 14.198693,14.198693 0 0 1 14.19862,14.19862 14.198693,14.198693 0 0 1 -14.19862,14.19862 14.198693,14.198693 0 0 1 -14.19913,-14.19862 14.198693,14.198693 0 0 1 14.19913,-14.19862 z"
         style="opacity:1;fill:#e64536;fill-opacity:1;stroke:none;stroke-width:0.46757433;stroke-miterlimit:4;stroke-dasharray:none"
         inkscape:connector-curvature="0" />
    </g>
    <path
       style="fill:#1b1b1b;fill-opacity:1;stroke-width:0.08466666"
       d="m 125.34727,177.23763 v -1.09961 l -3.06916,-0.0222 -3.06917,-0.0222 v -6.39233 -6.39233 l 4.27613,-0.0219 4.27612,-0.0219 1.07969,1.08209 1.07968,1.08209 -0.0218,5.33218 -0.0218,5.33217 -0.99483,0.0239 -0.99484,0.0238 v 1.09798 c 0,0.60389 -0.0157,1.09798 -0.0349,1.09798 -0.0192,0 -0.30494,-0.15569 -0.635,-0.34599 l -0.6001,-0.34598 -0.6001,0.34598 c -0.33006,0.1903 -0.61581,0.34599 -0.635,0.34599 -0.0192,0 -0.0349,-0.49483 -0.0349,-1.09961 z m 0.90273,0.12237 0.36727,-0.21523 0.36728,0.21523 c 0.202,0.11838 0.3925,0.21524 0.42333,0.21524 0.0308,0 0.0561,-0.44768 0.0561,-0.99483 v -0.99484 h -0.84667 -0.84666 v 0.99484 c 0,0.54715 0.0252,0.99483 0.0561,0.99483 0.0308,0 0.22133,-0.0969 0.42333,-0.21524 z m -0.90273,-1.84395 c 0,-0.1168 -0.15063,-0.35373 -0.37134,-0.58407 -0.89768,-0.93687 -0.84455,-2.36199 0.12056,-3.23391 0.48169,-0.43518 0.86844,-0.58487 1.52154,-0.58893 2.0037,-0.0125 3.02815,2.3747 1.64059,3.82284 -0.22071,0.23034 -0.37135,0.46727 -0.37135,0.58407 0,0.19179 0.0194,0.19652 0.80434,0.19652 h 0.80433 v -4.99533 -4.99533 h -1.016 -1.016 v -1.016 -1.016 h -3.937 -3.937 v 6.01133 6.01133 h 2.87867 2.87866 z m -3.89466,-5.81481 c 0,-0.16473 0.0564,-0.16933 2.07433,-0.16933 2.01789,0 2.07433,0.005 2.07433,0.16933 0,0.16473 -0.0564,0.16933 -2.07433,0.16933 -2.01789,0 -2.07433,-0.005 -2.07433,-0.16933 z m 0,-2.07433 v -0.21167 h 3.09033 3.09033 v 0.21167 0.21166 h -3.09033 -3.09033 z m 6.19818,7.27824 c 0.42554,-0.29498 0.8294,-1.01264 0.82868,-1.47259 -0.002,-1.40233 -1.47227,-2.34821 -2.67455,-1.72086 -0.94123,0.49113 -1.28903,1.49497 -0.84693,2.44445 0.34379,0.73833 0.89475,1.05855 1.76147,1.02376 0.47034,-0.0189 0.63027,-0.0661 0.93133,-0.27476 z m 1.50648,-9.58753 c 0,-0.0361 -0.28575,-0.34946 -0.635,-0.69638 l -0.635,-0.63076 v 0.69638 0.69638 h 0.635 c 0.34925,0 0.635,-0.0295 0.635,-0.0656 z"
       id="path8227"
       inkscape:connector-curvature="0" />
  </g>
</svg>
