<?xml version="1.0" encoding="UTF-8" standalone="no"?>
<!-- Created with Inkscape (http://www.inkscape.org/) -->

<svg
   xmlns:dc="http://purl.org/dc/elements/1.1/"
   xmlns:cc="http://creativecommons.org/ns#"
   xmlns:rdf="http://www.w3.org/1999/02/22-rdf-syntax-ns#"
   xmlns:svg="http://www.w3.org/2000/svg"
   xmlns="http://www.w3.org/2000/svg"
   xmlns:sodipodi="http://sodipodi.sourceforge.net/DTD/sodipodi-0.dtd"
   xmlns:inkscape="http://www.inkscape.org/namespaces/inkscape"
   width="25.664583mm"
   height="25.664955mm"
   viewBox="0 0 25.664583 25.664955"
   version="1.1"
   id="svg8"
   inkscape:version="0.92.2 5c3e80d, 2017-08-06"
   sodipodi:docname="sticker-innovation.svg">
  <defs
     id="defs2" />
  <sodipodi:namedview
     id="base"
     pagecolor="#ffffff"
     bordercolor="#666666"
     borderopacity="1.0"
     inkscape:pageopacity="0.0"
     inkscape:pageshadow="2"
     inkscape:zoom="2.8"
     inkscape:cx="72.499158"
     inkscape:cy="5.0660446"
     inkscape:document-units="mm"
     inkscape:current-layer="layer1"
     showgrid="false"
     inkscape:snap-global="true"
     fit-margin-top="0"
     fit-margin-left="0"
     fit-margin-right="0"
     fit-margin-bottom="0"
     inkscape:window-width="1470"
     inkscape:window-height="1335"
     inkscape:window-x="0"
     inkscape:window-y="1"
     inkscape:window-maximized="0"
     showguides="true"
     inkscape:guide-bbox="true">
    <sodipodi:guide
       position="24.036316,73.133084"
       orientation="0,1"
       id="guide6227"
       inkscape:locked="false" />
    <sodipodi:guide
       position="22.843159,-30.640543"
       orientation="0,1"
       id="guide8376"
       inkscape:locked="false" />
    <sodipodi:guide
       position="25.583487,-14.293074"
       orientation="0,1"
       id="guide8378"
       inkscape:locked="false" />
  </sodipodi:namedview>
  <metadata
     id="metadata5">
    <rdf:RDF>
      <cc:Work
         rdf:about="">
        <dc:format>image/svg+xml</dc:format>
        <dc:type
           rdf:resource="http://purl.org/dc/dcmitype/StillImage" />
        <dc:title></dc:title>
      </cc:Work>
    </rdf:RDF>
  </metadata>
  <g
     inkscape:label="Layer 1"
     inkscape:groupmode="layer"
     id="layer1"
     transform="translate(-111.73246,-157.96878)">
    <g
       id="g2976"
       transform="matrix(0.74184052,0,0,0.74184052,32.157572,44.093964)">
      <g
         id="g6317">
        <circle
           style="opacity:1;fill:#fdf1cf;fill-opacity:1;stroke:none;stroke-width:0.35583964;stroke-miterlimit:4;stroke-dasharray:none"
           id="path6312"
           cx="124.56475"
           cy="170.80125"
           r="16.971617" />
        <path
           inkscape:connector-curvature="0"
           style="opacity:1;fill:#e64536;fill-opacity:1;stroke:none;stroke-width:3.95147228;stroke-miterlimit:4;stroke-dasharray:none"
           d="m -31.054688,168.66797 -1.427734,1.46484 -1.505859,-1.38476 -1.359375,1.52539 -1.566406,-1.31446 -1.291016,1.58399 -1.623047,-1.24219 -1.21875,1.64063 -1.675781,-1.16993 -1.144532,1.69532 -1.728515,-1.09375 -1.066406,1.74414 -1.775391,-1.01367 -0.986328,1.79101 -1.820313,-0.93555 -0.904297,1.83399 -1.859374,-0.85156 -0.822266,1.87109 -1.896484,-0.76758 -0.738282,1.9082 -1.927734,-0.68164 -0.650391,1.9375 L -62,176.61523 l -0.564453,1.96485 -1.980469,-0.50586 -0.476562,1.98828 -2.001954,-0.41602 -0.384765,2.00782 -2.019531,-0.32618 -0.294922,2.02344 -2.03125,-0.23633 -0.203125,2.03516 -2.039063,-0.14453 -0.113281,2.04102 -2.044922,-0.0508 -0.01953,2.04297 -2.044922,0.041 0.07031,2.04297 -2.039062,0.13086 0.162109,2.03711 -2.033203,0.22265 0.253906,2.0293 -2.021484,0.31445 0.345703,2.01563 -2.005859,0.40234 0.435547,1.99805 -1.984375,0.49414 0.523437,1.97656 -1.958984,0.58203 0.611328,1.95117 -1.931641,0.66797 0.697266,1.92188 -1.898438,0.75586 0.783204,1.88672 -1.863282,0.83984 0.867188,1.85156 -1.824219,0.92188 0.949219,1.81054 -1.78125,1.00391 1.03125,1.76562 -1.734375,1.08204 1.109375,1.71875 -1.685547,1.1582 1.185547,1.66797 -1.63086,1.23242 1.257813,1.61133 -1.574219,1.30664 1.330078,1.55273 -1.513672,1.375 1.398438,1.49219 -1.451172,1.44141 1.462891,1.42773 -1.384766,1.50391 1.527344,1.36133 -1.316406,1.5664 1.585937,1.29102 -1.24414,1.62304 1.642578,1.21875 -1.169922,1.67579 1.695312,1.14453 -1.09375,1.72851 1.744141,1.06641 -1.015625,1.77539 1.791016,0.98633 -0.933594,1.81836 1.832031,0.90625 -0.851563,1.85937 1.873047,0.82227 -0.767578,1.89648 1.90625,0.73633 -0.68164,1.92773 1.939453,0.65235 -0.595703,1.95703 1.966797,0.56445 -0.50586,1.98047 1.988281,0.47461 -0.417968,2.00195 2.009765,0.38672 -0.328125,2.01758 2.023438,0.29492 -0.234375,2.03125 2.035156,0.20508 -0.144531,2.03906 2.041015,0.11328 -0.05273,2.04297 2.044922,0.0215 0.03906,2.04492 2.042969,-0.0723 0.132813,2.04102 2.037109,-0.16211 0.222656,2.0332 2.029297,-0.2539 0.3125,2.01953 2.015625,-0.34375 0.404297,2.0039 1.998047,-0.43359 0.492187,1.98438 1.976563,-0.52344 0.582031,1.95898 1.951172,-0.61133 0.669922,1.93164 1.921875,-0.69921 0.753906,1.90039 1.888672,-0.78321 0.839844,1.86329 1.851562,-0.86719 0.921875,1.82422 1.810547,-0.95118 1.003906,1.78125 1.765625,-1.02929 1.082032,1.73437 1.71875,-1.10937 1.158203,1.68554 1.666015,-1.18554 1.234375,1.63086 1.611329,-1.25782 1.304687,1.57227 1.554687,-1.32812 1.373047,1.51367 1.492188,-1.39844 1.441406,1.45117 1.429688,-1.46484 1.503906,1.38476 1.361328,-1.52539 1.564453,1.31446 1.291016,-1.58399 1.623047,1.24414 1.21875,-1.64258 1.677734,1.16993 1.144531,-1.69532 1.726563,1.09375 1.066406,-1.74414 1.775391,1.01367 0.988281,-1.78906 1.818359,0.9336 0.9062502,-1.83399 1.859375,0.85156 0.8222657,-1.87109 1.8945312,0.76758 0.7382813,-1.90821 1.9277344,0.68165 0.6523437,-1.9375 1.95507812,0.59375 0.56445318,-1.96485 1.9824218,0.50586 L 3.5,288.03125 l 2.0019531,0.41602 0.3847657,-2.00782 2.0195312,0.32617 0.2949219,-2.02343 2.0312501,0.23633 0.203125,-2.03516 2.041015,0.14453 0.111329,-2.04101 2.044921,0.0527 0.02149,-2.04492 2.042969,-0.0391 -0.07031,-2.04492 2.041016,-0.13086 -0.16211,-2.03711 2.03125,-0.22265 -0.253906,-2.0293 2.021485,-0.31445 -0.34375,-2.01367 2.003906,-0.4043 -0.435547,-1.99805 1.984375,-0.49414 -0.523438,-1.97656 1.960938,-0.58203 -0.611328,-1.94922 1.93164,-0.66992 -0.699218,-1.92188 1.90039,-0.75586 -0.785156,-1.88672 1.865234,-0.83984 -0.86914,-1.85156 1.826172,-0.92188 -0.951172,-1.81054 1.78125,-1.00391 -1.03125,-1.76563 1.736328,-1.08203 -1.109375,-1.71875 1.683594,-1.1582 -1.183594,-1.66602 1.630859,-1.23437 -1.259765,-1.61133 1.574218,-1.30469 -1.330078,-1.55468 1.513672,-1.375 -1.396484,-1.49219 1.449219,-1.44141 -1.462891,-1.42773 1.384765,-1.50391 -1.52539,-1.36133 1.314453,-1.5664 -1.585937,-1.29102 1.24414,-1.62304 -1.640625,-1.21875 1.169922,-1.67579 -1.695313,-1.14453 1.09375,-1.72656 -1.746093,-1.06836 1.015625,-1.77344 -1.791016,-0.98828 0.933594,-1.81836 -1.832031,-0.90625 0.851562,-1.85937 -1.871094,-0.82227 0.765625,-1.89453 -1.90625,-0.73828 0.681641,-1.92773 -1.9375,-0.65235 0.59375,-1.95703 -1.964844,-0.56445 0.50586,-1.98047 -1.988282,-0.47461 0.416016,-2.00195 -2.007813,-0.38672 0.326172,-2.01758 -2.023437,-0.29492 0.236328,-2.03125 -2.035156,-0.20508 0.144531,-2.03906 -2.042969,-0.11328 0.05273,-2.04297 -2.044922,-0.0215 -0.03906,-2.04492 -2.042969,0.0723 -0.130859,-2.04102 -2.0390624,0.16211 -0.2226562,-2.0332 -2.0273438,0.2539 -0.3144531,-2.01953 -2.015625,0.34375 -0.4042969,-2.0039 -1.9960937,0.43359 -0.4941407,-1.98438 -1.97656245,0.5254 -0.58203125,-1.96094 -1.9511719,0.61133 -0.6679687,-1.93165 -1.921875,0.69922 -0.7558594,-1.90039 -1.8886719,0.78321 -0.8398437,-1.86328 -1.8496094,0.86718 -0.9238285,-1.82422 -1.810547,0.95118 -1.001953,-1.78125 -1.765625,1.02929 -1.083984,-1.73437 -1.716797,1.10937 -1.160156,-1.68554 -1.666016,1.18554 -1.232422,-1.63086 -1.611328,1.25782 -1.30664,-1.57227 -1.552735,1.32813 -1.375,-1.51368 -1.492187,1.39844 z m 0.294922,4.89648 a 60.482879,60.482879 0 0 1 60.482422,60.48243 60.482879,60.482879 0 0 1 -60.482422,60.48242 60.482879,60.482879 0 0 1 -60.484375,-60.48242 60.482879,60.482879 0 0 1 60.484375,-60.48243 z"
           transform="matrix(0.26458333,0,0,0.26458333,132.70353,108.87636)"
           id="path6239" />
        <path
           inkscape:connector-curvature="0"
           style="opacity:1;fill:#e64536;fill-opacity:1;stroke:none;stroke-width:1.76721013;stroke-miterlimit:4;stroke-dasharray:none"
           d="m -30.759766,175.20508 a 58.841382,58.841382 0 0 0 -58.841796,58.8418 58.841382,58.841382 0 0 0 58.841796,58.84179 58.841382,58.841382 0 0 0 58.839844,-58.84179 58.841382,58.841382 0 0 0 -58.839844,-58.8418 z m 0,5.17773 a 53.664353,53.664353 0 0 1 53.664063,53.66407 53.664353,53.664353 0 0 1 -53.664063,53.66406 53.664353,53.664353 0 0 1 -53.666015,-53.66406 53.664353,53.664353 0 0 1 53.666015,-53.66407 z"
           transform="matrix(0.26458333,0,0,0.26458333,132.70353,108.87636)"
           id="circle6306" />
      </g>
      <path
         inkscape:connector-curvature="0"
         id="path8374"
         d="m 123.66284,178.94909 c -0.77628,-0.24945 -1.38573,-0.80141 -1.76213,-1.59591 l -0.2201,-0.46457 -0.0348,-1.99259 -0.0348,-1.99257 -0.41731,-0.30771 c -1.54965,-1.14267 -2.43589,-3.18953 -2.20268,-5.08729 0.16758,-1.36362 0.75061,-2.53072 1.72951,-3.46211 1.0656,-1.01389 2.34495,-1.51919 3.84643,-1.51919 2.46468,0 4.5275,1.4923 5.33185,3.8572 0.75187,2.21056 -0.0708,4.81933 -1.95861,6.21139 l -0.41731,0.30771 -0.0348,1.99257 -0.0348,1.99259 -0.22152,0.46762 c -0.25018,0.52809 -0.73143,1.08048 -1.15951,1.33085 -0.67238,0.39327 -1.66509,0.50121 -2.40952,0.26201 z m 1.95885,-0.61796 c 0.5369,-0.26434 0.90504,-0.64227 1.15992,-1.19074 0.15585,-0.33538 0.18538,-0.50693 0.20799,-1.20812 l 0.0263,-0.81723 h -2.44162 -2.44164 v 0.6829 c 0,0.7967 0.11431,1.24888 0.43535,1.72212 0.68743,1.01332 1.95764,1.3507 3.05365,0.81107 z m 1.37961,-4.70345 v -1.00051 l 0.19127,-0.12152 c 1.56864,-0.99665 2.4699,-2.59559 2.46855,-4.37948 -0.003,-4.30277 -5.02177,-6.68018 -8.33405,-3.94807 -1.8251,1.50543 -2.3729,4.03036 -1.34273,6.18889 0.38027,0.79677 1.12366,1.60914 1.95709,2.13866 l 0.19126,0.12152 v 1.00051 1.0005 h 2.43432 2.43429 z m -5.33563,-5.86849 c 0.13046,-1.10151 0.93742,-2.08264 1.99717,-2.42821 0.50065,-0.16327 1.30768,-0.16327 1.80834,0 1.05972,0.34557 1.86668,1.3267 1.99714,2.42821 l 0.0392,0.33113 h -0.24522 c -0.23805,0 -0.24663,-0.009 -0.29312,-0.31941 -0.10833,-0.72241 -0.64894,-1.47738 -1.29079,-1.80264 -1.47186,-0.74585 -3.26976,0.17656 -3.51361,1.80264 -0.0465,0.31006 -0.0551,0.31941 -0.29312,0.31941 h -0.24522 z"
         style="fill:#1b1b1b;fill-opacity:1;stroke-width:0.06955169" />
    </g>
  </g>
</svg>
