<?xml version="1.0" encoding="UTF-8" standalone="no"?>
<!-- Created with Inkscape (http://www.inkscape.org/) -->

<svg
   xmlns:dc="http://purl.org/dc/elements/1.1/"
   xmlns:cc="http://creativecommons.org/ns#"
   xmlns:rdf="http://www.w3.org/1999/02/22-rdf-syntax-ns#"
   xmlns:svg="http://www.w3.org/2000/svg"
   xmlns="http://www.w3.org/2000/svg"
   xmlns:sodipodi="http://sodipodi.sourceforge.net/DTD/sodipodi-0.dtd"
   xmlns:inkscape="http://www.inkscape.org/namespaces/inkscape"
   width="6.5mm"
   height="5.309mm"
   viewBox="0 0 6.4999999 5.309"
   version="1.1"
   id="svg8"
   inkscape:version="0.92.2 5c3e80d, 2017-08-06"
   sodipodi:docname="use-name-icon.svg">
  <defs
     id="defs2" />
  <sodipodi:namedview
     id="base"
     pagecolor="#ffffff"
     bordercolor="#666666"
     borderopacity="1.0"
     inkscape:pageopacity="0.0"
     inkscape:pageshadow="2"
     inkscape:zoom="7.9195959"
     inkscape:cx="7.0316382"
     inkscape:cy="13.387476"
     inkscape:document-units="mm"
     inkscape:current-layer="layer1"
     showgrid="false"
     inkscape:snap-global="false"
     fit-margin-top="0"
     fit-margin-left="0"
     fit-margin-right="0"
     fit-margin-bottom="0"
     inkscape:window-width="1470"
     inkscape:window-height="1335"
     inkscape:window-x="0"
     inkscape:window-y="1"
     inkscape:window-maximized="0"
     showguides="true"
     inkscape:guide-bbox="true">
    <sodipodi:guide
       position="3.0652472,5.6460689"
       orientation="0,1"
       id="guide6227"
       inkscape:locked="false" />
  </sodipodi:namedview>
  <metadata
     id="metadata5">
    <rdf:RDF>
      <cc:Work
         rdf:about="">
        <dc:format>image/svg+xml</dc:format>
        <dc:type
           rdf:resource="http://purl.org/dc/dcmitype/StillImage" />
        <dc:title></dc:title>
      </cc:Work>
    </rdf:RDF>
  </metadata>
  <g
     inkscape:label="Layer 1"
     inkscape:groupmode="layer"
     id="layer1"
     transform="translate(-132.70353,-110.83772)">
    <path
       style="color:#000000;font-style:normal;font-variant:normal;font-weight:normal;font-stretch:normal;font-size:medium;line-height:normal;font-family:sans-serif;font-variant-ligatures:normal;font-variant-position:normal;font-variant-caps:normal;font-variant-numeric:normal;font-variant-alternates:normal;font-feature-settings:normal;text-indent:0;text-align:start;text-decoration:none;text-decoration-line:none;text-decoration-style:solid;text-decoration-color:#000000;letter-spacing:normal;word-spacing:normal;text-transform:none;writing-mode:lr-tb;direction:ltr;text-orientation:mixed;dominant-baseline:auto;baseline-shift:baseline;text-anchor:start;white-space:normal;shape-padding:0;clip-rule:nonzero;display:inline;overflow:visible;visibility:visible;opacity:1;isolation:auto;mix-blend-mode:normal;color-interpolation:sRGB;color-interpolation-filters:linearRGB;solid-color:#000000;solid-opacity:1;vector-effect:none;fill:#999999;fill-opacity:1;fill-rule:nonzero;stroke:none;stroke-width:0.21688852;stroke-linecap:butt;stroke-linejoin:miter;stroke-miterlimit:4;stroke-dasharray:none;stroke-dashoffset:0;stroke-opacity:1;color-rendering:auto;image-rendering:auto;shape-rendering:auto;text-rendering:auto;enable-background:accumulate"
       d="m 134.89909,110.83756 c -0.71943,0 -1.30533,0.58554 -1.30533,1.30496 0,0.51355 0.29917,0.9578 0.73173,1.17062 -0.93518,0.2692 -1.62192,1.17354 -1.62196,2.24387 v 3.7e-4 3.8e-4 c 7.3e-4,0.16994 0.0197,0.33922 0.0554,0.50493 l 0.0181,0.0842 h 4.25074 l 0.0177,-0.0845 c 0.0353,-0.16575 0.0538,-0.33504 0.0543,-0.50493 v -3.7e-4 c -3e-5,-1.07165 -0.68842,-1.97704 -1.62536,-2.24501 0.4314,-0.2132 0.72947,-0.65671 0.72947,-1.16948 0,-0.71942 -0.58553,-1.30496 -1.30496,-1.30496 z m 0,0.21661 c 0.43775,0 0.81278,0.25751 0.98571,0.62908 -3.1e-4,7.3e-4 -6e-5,0.003 -3.8e-4,0.003 -0.0205,0.0457 -0.10038,0.094 -0.25284,0.10039 -0.15248,0.006 -0.35692,-0.0323 -0.5638,-0.12001 -0.20688,-0.0877 -0.37486,-0.20703 -0.47361,-0.32001 -0.0778,-0.089 -0.10444,-0.16252 -0.10264,-0.21246 0.12589,-0.0508 0.26326,-0.0796 0.40756,-0.0796 z m -0.63965,0.20945 c 0.005,0.0279 0.005,0.0597 -0.004,0.0974 -0.0173,0.0858 -0.0714,0.18941 -0.16,0.27623 -0.0693,0.0681 -0.14792,0.11395 -0.22039,0.1385 0.0744,-0.20719 0.20901,-0.38488 0.38379,-0.51209 z m 0.18341,0.25925 c 0.12809,0.13672 0.30984,0.26087 0.53021,0.35435 0.23439,0.0995 0.46637,0.14609 0.66494,0.13774 0.12161,-0.005 0.23833,-0.0323 0.32756,-0.0902 0.0142,0.0704 0.0215,0.14314 0.0215,0.21775 0,0.59685 -0.47735,1.07905 -1.07211,1.08759 -0.005,-2e-5 -0.009,-7.5e-4 -0.0132,-7.5e-4 -0.005,0 -0.0106,7.4e-4 -0.0158,7.5e-4 -0.596,-0.007 -1.07514,-0.48985 -1.07514,-1.08759 0,-0.0427 0.003,-0.0846 0.007,-0.12604 0.0137,-0.002 0.0272,2.4e-4 0.0408,-0.002 0.13943,-0.0257 0.27876,-0.0995 0.397,-0.21548 0.0847,-0.0831 0.14725,-0.17798 0.18681,-0.27587 z m 0.41436,1.92235 c 0.014,4.5e-4 0.0278,0.002 0.0419,0.002 0.015,0 0.0297,-0.002 0.0445,-0.002 1.07441,0.0239 1.94269,0.95472 1.94273,2.11179 -4.4e-4,0.1266 -0.0184,0.25188 -0.0401,0.37624 h -3.88809 c -0.0219,-0.12459 -0.0405,-0.25009 -0.0411,-0.377 4.2e-4,-1.15576 0.86713,-2.0856 1.94009,-2.11103 z"
       id="path6221"
       inkscape:connector-curvature="0" />
  </g>
</svg>
