<?xml version="1.0" encoding="UTF-8" standalone="no"?>
<!-- Created with Inkscape (http://www.inkscape.org/) -->

<svg
   xmlns:dc="http://purl.org/dc/elements/1.1/"
   xmlns:cc="http://creativecommons.org/ns#"
   xmlns:rdf="http://www.w3.org/1999/02/22-rdf-syntax-ns#"
   xmlns:svg="http://www.w3.org/2000/svg"
   xmlns="http://www.w3.org/2000/svg"
   xmlns:sodipodi="http://sodipodi.sourceforge.net/DTD/sodipodi-0.dtd"
   xmlns:inkscape="http://www.inkscape.org/namespaces/inkscape"
   width="6.5mm"
   height="5.309mm"
   viewBox="0 0 6.4999999 5.309"
   version="1.1"
   id="svg8"
   inkscape:version="0.92.2 5c3e80d, 2017-08-06"
   sodipodi:docname="user-phone-icon.svg">
  <defs
     id="defs2" />
  <sodipodi:namedview
     id="base"
     pagecolor="#ffffff"
     bordercolor="#666666"
     borderopacity="1.0"
     inkscape:pageopacity="0.0"
     inkscape:pageshadow="2"
     inkscape:zoom="7.9195959"
     inkscape:cx="-17.464561"
     inkscape:cy="13.387476"
     inkscape:document-units="mm"
     inkscape:current-layer="layer1"
     showgrid="false"
     inkscape:snap-global="false"
     fit-margin-top="0"
     fit-margin-left="0"
     fit-margin-right="0"
     fit-margin-bottom="0"
     inkscape:window-width="1470"
     inkscape:window-height="1335"
     inkscape:window-x="0"
     inkscape:window-y="1"
     inkscape:window-maximized="0"
     showguides="true"
     inkscape:guide-bbox="true">
    <sodipodi:guide
       position="3.0652472,5.6460689"
       orientation="0,1"
       id="guide6227"
       inkscape:locked="false" />
  </sodipodi:namedview>
  <metadata
     id="metadata5">
    <rdf:RDF>
      <cc:Work
         rdf:about="">
        <dc:format>image/svg+xml</dc:format>
        <dc:type
           rdf:resource="http://purl.org/dc/dcmitype/StillImage" />
        <dc:title />
      </cc:Work>
    </rdf:RDF>
  </metadata>
  <g
     inkscape:label="Layer 1"
     inkscape:groupmode="layer"
     id="layer1"
     transform="translate(-132.70353,-110.83772)">
    <g
       transform="matrix(0.81620504,0,0,0.81620504,29.415087,27.685176)"
       id="layer1-2"
       inkscape:label="Layer 1"
       style="fill:#999999;fill-opacity:1">
      <path
         inkscape:connector-curvature="0"
         id="path5226"
         d="m 128.07718,102.37333 c -0.0789,0.002 -0.11681,0.0186 -0.14211,0.0615 -0.0235,0.0391 -0.0195,0.0962 0.008,0.13229 0.0287,0.0369 0.0603,0.0475 0.1297,0.0455 0.26002,-0.009 0.56324,0.0897 0.79324,0.25838 0.15167,0.11124 0.25276,0.21824 0.34416,0.3638 0.11685,0.18606 0.20353,0.4492 0.22273,0.67696 0.003,0.0296 0.007,0.0636 0.01,0.0754 0.01,0.0427 0.0532,0.0808 0.0966,0.0868 l 5.3e-4,5.3e-4 c 0.0254,0.003 0.0754,-0.0118 0.0935,-0.0274 0.0173,-0.0149 0.0338,-0.0432 0.0398,-0.0672 0.005,-0.0195 6.8e-4,-0.0857 -0.009,-0.16691 -0.009,-0.0742 -0.0617,-0.29274 -0.0879,-0.36484 -0.12932,-0.35667 -0.3164,-0.59963 -0.6196,-0.80564 -0.25912,-0.17606 -0.5891,-0.27723 -0.87953,-0.26923 z m 0.0171,0.68574 c -0.0755,-0.009 -0.13183,0.0266 -0.14573,0.0915 -0.0106,0.0491 0.008,0.0958 0.0496,0.12351 0.0201,0.0134 0.0306,0.0163 0.0853,0.0253 0.22466,0.0367 0.40548,0.12643 0.5116,0.25321 0.0457,0.0546 0.0768,0.1097 0.10645,0.1881 0.0163,0.0432 0.0414,0.16484 0.0424,0.20774 0,0.017 0.002,0.0375 0.004,0.0455 0.01,0.0416 0.0541,0.0824 0.0966,0.0884 h 5.3e-4 c 0.0292,0.004 0.074,-0.008 0.0946,-0.0253 0.0214,-0.0182 0.0389,-0.0489 0.0419,-0.0755 0.01,-0.077 -0.0234,-0.24917 -0.0703,-0.36225 -0.10648,-0.25689 -0.31095,-0.42734 -0.6227,-0.51935 -0.0562,-0.0167 -0.1437,-0.0348 -0.1943,-0.0408 z m -0.65112,0.25115 c -0.0345,-0.002 -0.0828,0.006 -0.11111,0.0196 l -0.002,0.002 h -0.002 c -9.6e-4,4.8e-4 -0.0186,0.012 -0.0233,0.0155 -0.005,0.004 -0.008,0.007 -0.0119,0.01 -0.007,0.006 -0.0139,0.0123 -0.0217,0.0196 -0.0156,0.0147 -0.0347,0.0329 -0.0563,0.0548 -0.0434,0.0438 -0.0973,0.0997 -0.15245,0.15813 -0.0552,0.0584 -0.11042,0.11954 -0.15606,0.17001 -0.0456,0.0505 -0.0782,0.0839 -0.1018,0.11679 -0.14503,0.20236 -0.21769,0.45057 -0.20878,0.70745 0.004,0.12524 0.0437,0.29101 0.0935,0.41186 0.18002,0.4359 0.57822,0.9512 1.23661,1.62523 0.7217,0.73885 1.30785,1.17468 1.87999,1.25367 0.0877,0.0125 0.17495,0.0138 0.26148,0.006 0.39147,-0.0713 0.62375,-0.28026 0.87954,-0.5395 0.0752,-0.0754 0.13732,-0.13431 0.14418,-0.14056 0.0349,-0.0318 0.0718,-0.0811 0.0801,-0.14056 0.008,-0.0594 -0.008,-0.10957 -0.0274,-0.15606 -0.005,-0.0112 -0.016,-0.0344 -0.031,-0.0548 -0.0151,-0.0204 -0.0312,-0.0389 -0.0568,-0.0646 -0.0513,-0.0514 -0.14101,-0.13491 -0.31833,-0.30076 -0.22525,-0.22727 -0.31229,-0.30167 -0.54209,-0.48938 -0.0167,-0.0158 -0.0188,-0.0233 -0.0486,-0.0429 -0.0461,-0.0312 -0.11167,-0.0438 -0.1664,-0.031 -0.0547,0.0127 -0.0964,0.0442 -0.13074,0.0816 -0.003,0.003 -0.0578,0.0575 -0.10542,0.10542 -0.0491,0.0494 -0.11521,0.11897 -0.15038,0.15658 l -0.031,0.0331 h -0.006 c -0.0149,0.003 -0.0378,0.002 -0.0372,0.002 -0.11203,-0.0209 -0.41004,-0.32062 -0.7245,-0.61598 -0.25521,-0.2397 -0.36264,-0.40516 -0.38499,-0.52348 -0.009,-0.0486 0.004,-0.0593 -0.004,-0.0512 0.009,-0.01 0.0866,-0.0961 0.17157,-0.18759 0.043,-0.0463 0.0842,-0.0898 0.11524,-0.12454 0.0155,-0.0174 0.029,-0.033 0.0393,-0.045 0.0103,-0.012 0.0116,-0.006 0.0295,-0.0351 v -0.002 c 0.0476,-0.078 0.0257,-0.16554 -0.0176,-0.22479 -4.5e-4,-6.1e-4 -0.011,-0.0145 -0.014,-0.0176 l -0.01,-0.01 c -0.007,-0.008 -0.0172,-0.0174 -0.0295,-0.0295 -0.0245,-0.0242 -0.0602,-0.0572 -0.1018,-0.0977 -0.0831,-0.0808 -0.19609,-0.18903 -0.31833,-0.30644 -0.39604,-0.38034 -0.56856,-0.54894 -0.65422,-0.62735 -0.0428,-0.0392 -0.0564,-0.0575 -0.0992,-0.078 -0.0198,-0.009 -0.0529,-0.0133 -0.0687,-0.0134 -0.003,2e-5 -0.0123,4.2e-4 -0.006,0 z m -0.0114,0.25993 c 0.008,0.006 -10e-4,4e-5 0.0155,0.0155 0.0783,0.0717 0.25595,0.2422 0.65216,0.6227 0.12194,0.11712 0.23368,0.22668 0.31626,0.30696 0.0413,0.0401 0.076,0.0722 0.0997,0.0956 l 0.004,0.004 c -0.005,0.005 -0.006,0.01 -0.0119,0.0155 -0.0296,0.0332 -0.0691,0.0756 -0.1111,0.12092 -0.085,0.0917 -0.16243,0.17486 -0.17415,0.18759 -0.0685,0.0745 -0.076,0.17515 -0.0584,0.26768 0.0396,0.20988 0.19118,0.40497 0.46095,0.65836 0.32984,0.3098 0.61055,0.63607 0.84956,0.68058 0.16038,0.0364 0.18842,-0.0314 0.30282,-0.11162 0.031,-0.0332 0.0977,-0.10314 0.1447,-0.15038 0.045,-0.0453 0.0822,-0.0829 0.10335,-0.10542 0.0141,0.0134 0.0317,0.0297 0.0486,0.047 0.0989,0.10122 0.0773,0.0545 0.49196,0.44235 0.17729,0.16581 0.26808,0.2489 0.31212,0.29301 0.022,0.0221 0.0315,0.0346 0.0331,0.0367 v 0.002 c 0.008,0.0204 0.007,0.0173 0.008,0.0176 -0.0255,0.0234 -0.0736,0.0739 -0.14831,0.14882 -0.0757,0.0759 -0.17206,0.17186 -0.26562,0.26717 -0.0417,0.0425 -0.0737,0.0669 -0.0863,0.0744 -0.10917,0.065 -0.24878,0.11096 -0.37258,0.12299 -6.6e-4,6e-5 -0.001,-6e-5 -0.002,0 -0.0688,0.006 -0.1377,0.005 -0.20308,-0.004 h -0.002 c -0.44343,-0.0612 -1.03512,-0.46406 -1.73374,-1.17926 -0.64869,-0.66412 -1.02932,-1.16911 -1.18546,-1.54719 -0.0323,-0.0784 -0.0723,-0.25698 -0.0744,-0.32401 -0.007,-0.20449 0.0505,-0.39864 0.16226,-0.55449 0.002,-0.002 0.0398,-0.0455 0.0837,-0.094 0.0439,-0.0485 0.0983,-0.10858 0.15244,-0.16588 0.0541,-0.0573 0.1072,-0.11305 0.14831,-0.15451 0.0157,-0.0159 0.0282,-0.026 0.0393,-0.0367 z"
         style="color:#000000;font-style:normal;font-variant:normal;font-weight:normal;font-stretch:normal;font-size:medium;line-height:normal;font-family:sans-serif;font-variant-ligatures:normal;font-variant-position:normal;font-variant-caps:normal;font-variant-numeric:normal;font-variant-alternates:normal;font-feature-settings:normal;text-indent:0;text-align:start;text-decoration:none;text-decoration-line:none;text-decoration-style:solid;text-decoration-color:#000000;letter-spacing:normal;word-spacing:normal;text-transform:none;writing-mode:lr-tb;direction:ltr;text-orientation:mixed;dominant-baseline:auto;baseline-shift:baseline;text-anchor:start;white-space:normal;shape-padding:0;clip-rule:nonzero;display:inline;overflow:visible;visibility:visible;opacity:1;isolation:auto;mix-blend-mode:normal;color-interpolation:sRGB;color-interpolation-filters:linearRGB;solid-color:#000000;solid-opacity:1;vector-effect:none;fill:#999999;fill-opacity:1;fill-rule:nonzero;stroke:none;stroke-width:0.25;stroke-linecap:butt;stroke-linejoin:miter;stroke-miterlimit:4;stroke-dasharray:none;stroke-dashoffset:0;stroke-opacity:1;color-rendering:auto;image-rendering:auto;shape-rendering:auto;text-rendering:auto;enable-background:accumulate" />
    </g>
  </g>
</svg>
